<svg xmlns="http://www.w3.org/2000/svg" xmlns:xlink="http://www.w3.org/1999/xlink" width="80" height="793" viewBox="0 0 80 793"><svg width="80" height="31.787" version="1" id="Yandex" y="0"><g transform="matrix(.61773 0 0 .61773 0 0)"><path d="M21.06 0h-6.899C7.383 0 1.634 5.16 1.634 15.178c0 6.01 2.784 10.441 7.746 12.627L.121 44.56c-.302.547 0 .971.484.971H4.9c.364 0 .606-.12.727-.424l8.412-16.453h3.027v16.453c0 .182.181.424.422.424h3.753c.364 0 .485-.181.485-.484V.607c0-.425-.242-.607-.666-.607zm-3.993 24.77h-2.542c-3.995 0-7.868-2.915-7.868-10.2 0-7.59 3.631-10.685 7.323-10.685h3.087V24.77z" fill="#ff0303"></path><path d="M57.911 23.168c-.425 7.285-1.634 13.234-4.72 18.516h8.774V18.918h-3.873c0 1.031-.06 2.672-.18 4.25zM80.666 18.129c-2.118 0-3.39 2.61-3.933 7.77-.121.972-.121 1.882-.121 1.882s2.178-.242 3.57-.242h3.994s0-1.094-.06-2.065c-.302-4.675-1.512-7.345-3.45-7.345z" fill="none"></path><path d="M43.81 15.094h-3.752c-.304 0-.485.242-.485.424v11.595h-6.96V15.517c0-.302-.12-.423-.423-.423h-3.753c-.302 0-.484.181-.484.423v29.506c0 .303.121.485.423.485h3.814c.242 0 .423-.182.423-.485V30.94h6.96v14.084c0 .303.181.485.485.485h3.752c.302 0 .423-.242.423-.485V15.517a.413.413 0 0 0-.423-.423zM129.484 43.566l-.485-2.064c-.059-.182-.12-.242-.302-.242-.302 0-1.936.666-4.296.666-4.6 0-6.839-4.43-6.839-11.473 0-6.193 1.876-12.324 5.022-12.324.848 0 1.877.242 3.511 1.762.182.181.303.242.483.242.183 0 .365-.123.546-.426l1.634-2.67a.994.994 0 0 0 .182-.549c0-.242-.243-.424-.606-.605-2.481-1.276-4.176-1.518-5.629-1.518-5.688 0-10.106 6.799-10.106 17.422 0 9.168 4.236 14.45 10.288 14.45 2.543 0 5.266-1.214 6.355-2.005a.606.606 0 0 0 .242-.666zM103.18 28.813l7.263-13.295c.121-.182.06-.424-.182-.424h-3.57c-1.03 0-1.393.363-1.755 1.152L99.488 27.6c-.302.667-.605 1.091-.908 1.275V15.518c0-.243-.12-.424-.363-.424h-3.934c-.18 0-.362.181-.362.424v29.566c0 .182.121.424.362.424h3.934c.242 0 .363-.182.363-.424V29.846c.182.12.303.302.425.547l6.899 14.205c.363.728.908.91 1.695.91h3.872c.243 0 .303-.242.183-.424l-8.474-16.272zM68.502 41.684h-.726c-.909 0-1.15-.364-1.15-1.092V15.517c0-.302-.121-.423-.363-.423H54.158c-.301 0-.484.181-.484.423v2.186c0 7.346-.423 16.817-4.296 23.98h-1.332c-.363 0-.484.184-.484.487v8.863c0 .305.242.424.424.424h2.905c.665 0 .907-.484.907-.91v-5.04H64.75v5.526c0 .242.18.424.423.424h3.087c.362 0 .725-.303.725-.91V42.17c0-.303-.181-.486-.483-.486zm-6.537 0h-8.774c3.086-5.282 4.295-11.23 4.72-18.516.12-1.578.181-3.219.181-4.25h3.873v22.766zM80.848 14.365c-6.535 0-9.44 8.256-9.44 17.24 0 9.168 4.115 14.631 10.166 14.631 2.965 0 5.569-1.152 6.9-2.004.242-.12.302-.302.242-.545l-.484-2.064c-.06-.242-.182-.363-.485-.363-.241 0-1.997.666-4.478.666-4.66 0-6.84-4.067-6.84-9.409V31.08s2.361.283 3.753.283h8.837v-2.55c0-9.409-3.33-14.448-8.171-14.448zm-.666 13.174c-1.392 0-3.57.242-3.57.242s0-.91.12-1.883c.545-5.16 1.816-7.77 3.934-7.77 1.938 0 3.148 2.67 3.45 7.347.06.97.06 2.064.06 2.064h-3.994z"></path></g></svg><svg id="arrow_left" viewBox="0 0 13 24" width="13" height="24" y="32"><style>.st0{fill-rule:evenodd;clip-rule:evenodd}</style><path class="st0" d="M9.1 18.5c.7 0 1.3.6 1.3 1.3 0 .7-.6 1.3-1.3 1.3-.7 0-1.3-.6-1.3-1.3 0-.7.6-1.3 1.3-1.3zM11.7 21.1c.7 0 1.3.6 1.3 1.3s-.6 1.3-1.3 1.3c-.7 0-1.3-.6-1.3-1.3s.6-1.3 1.3-1.3zM6.5 15.9c.7 0 1.3.6 1.3 1.3 0 .7-.6 1.3-1.3 1.3s-1.3-.6-1.3-1.3c0-.7.6-1.3 1.3-1.3zM3.9 13.3c.7 0 1.3.6 1.3 1.3 0 .7-.6 1.3-1.3 1.3s-1.3-.6-1.3-1.3c0-.7.6-1.3 1.3-1.3zM1.3 10.7c.7 0 1.3.6 1.3 1.3 0 .7-.6 1.3-1.3 1.3-.7 0-1.3-.6-1.3-1.3 0-.7.6-1.3 1.3-1.3zM3.9 8.1c.7 0 1.3.6 1.3 1.3 0 .7-.6 1.3-1.3 1.3s-1.3-.6-1.3-1.3c0-.7.6-1.3 1.3-1.3zM6.5 5.5c.7 0 1.3.6 1.3 1.3s-.6 1.3-1.3 1.3-1.3-.6-1.3-1.3.6-1.3 1.3-1.3zM9.1 2.9c.7 0 1.3.6 1.3 1.3 0 .7-.6 1.3-1.3 1.3-.7 0-1.3-.6-1.3-1.3 0-.7.6-1.3 1.3-1.3zM11.7.3c.7 0 1.3.6 1.3 1.3 0 .7-.6 1.3-1.3 1.3-.7 0-1.3-.6-1.3-1.3 0-.7.6-1.3 1.3-1.3z"></path></svg><svg id="arrow_right" viewBox="0 0 13 24" width="13" height="24" y="56"><style id="style3">.st0{fill-rule:evenodd;clip-rule:evenodd}</style><g id="g5" transform="matrix(-1 0 0 1 13 0)"><path class="st0" d="M9.1 18.5c.7 0 1.3.6 1.3 1.3 0 .7-.6 1.3-1.3 1.3-.7 0-1.3-.6-1.3-1.3 0-.7.6-1.3 1.3-1.3z" id="path7" clip-rule="evenodd" fill-rule="evenodd"></path><path class="st0" d="M11.7 21.1c.7 0 1.3.6 1.3 1.3 0 .7-.6 1.3-1.3 1.3-.7 0-1.3-.6-1.3-1.3 0-.7.6-1.3 1.3-1.3z" id="path9" clip-rule="evenodd" fill-rule="evenodd"></path><path class="st0" d="M6.5 15.9c.7 0 1.3.6 1.3 1.3 0 .7-.6 1.3-1.3 1.3-.7 0-1.3-.6-1.3-1.3 0-.7.6-1.3 1.3-1.3z" id="path11" clip-rule="evenodd" fill-rule="evenodd"></path><path class="st0" d="M3.9 13.3c.7 0 1.3.6 1.3 1.3 0 .7-.6 1.3-1.3 1.3-.7 0-1.3-.6-1.3-1.3 0-.7.6-1.3 1.3-1.3z" id="path13" clip-rule="evenodd" fill-rule="evenodd"></path><path class="st0" d="M1.3 10.7c.7 0 1.3.6 1.3 1.3 0 .7-.6 1.3-1.3 1.3-.7 0-1.3-.6-1.3-1.3 0-.7.6-1.3 1.3-1.3z" id="path15" clip-rule="evenodd" fill-rule="evenodd"></path><path class="st0" d="M3.9 8.1c.7 0 1.3.6 1.3 1.3 0 .7-.6 1.3-1.3 1.3-.7 0-1.3-.6-1.3-1.3 0-.7.6-1.3 1.3-1.3z" id="path17" clip-rule="evenodd" fill-rule="evenodd"></path><path class="st0" d="M6.5 5.5c.7 0 1.3.6 1.3 1.3 0 .7-.6 1.3-1.3 1.3-.7 0-1.3-.6-1.3-1.3 0-.7.6-1.3 1.3-1.3z" id="path19" clip-rule="evenodd" fill-rule="evenodd"></path><path class="st0" d="M9.1 2.9c.7 0 1.3.6 1.3 1.3 0 .7-.6 1.3-1.3 1.3-.7 0-1.3-.6-1.3-1.3 0-.7.6-1.3 1.3-1.3z" id="path21" clip-rule="evenodd" fill-rule="evenodd"></path><path class="st0" d="M11.7.3c.7 0 1.3.6 1.3 1.3 0 .7-.6 1.3-1.3 1.3-.7 0-1.3-.6-1.3-1.3 0-.7.6-1.3 1.3-1.3z" id="path23" clip-rule="evenodd" fill-rule="evenodd"></path></g></svg><svg viewBox="0 0 14 21" height="21" width="14" id="brief" y="80"><path d="M0 10.5V0h14v21H0V10.5zm12.998 0V1.002H1.002v18.996h11.996V10.5zm-9.999 5.998v-.501h1.002v1.002H3v-.501zm2.004 0v-.501h5.998v1.002H5.003v-.501zM3 14.5V14H4v1.002H3v-.5zm2.004 0V14h5.998v1.002H5.003v-.5zm-2.004-2v-.498H4v.995H2.999V12.5zm2.004 0v-.498h5.998v.995H5.003V12.5zM3 10.5v-.501H4V11H3V10.5zm2.004 0v-.501h5.998V11H5.003V10.5zM3 7.501V7H11v1.002H2.999v-.5zM5.998 5v-.998h2.004V5.998H5.998V5z" fill="#9eafb4"></path></svg><svg viewBox="0 0 14 14" height="14" width="14" id="del" y="101"><path d="M6.757 13.998A6.996 6.996 0 0 1 .033 6.292 7.003 7.003 0 0 1 5.448.17C5.976.052 6.441 0 7 0c.307 0 .427.01.708.033a6.99 6.99 0 0 1 6.122 5.415c.12.528.17.992.17 1.551a6.967 6.967 0 0 1-1.166 3.878 7.012 7.012 0 0 1-5.388 3.111c-.113.01-.59.015-.69.01zm-.9-4.439L7 8.411l1.146 1.15 1.146 1.15.71-.71.71-.71-1.15-1.146-1.15-1.146 1.15-1.145 1.15-1.146-.71-.71-.71-.71-1.146 1.15L7 5.588l-1.146-1.15-1.146-1.15-.71.71-.71.71 1.15 1.146 1.15 1.145-1.15 1.146-1.15 1.146.707.708c.39.39.71.708.713.708.003 0 .52-.516 1.149-1.148z" fill="#333"></path></svg><svg viewBox="0 0 11 14" height="14" width="11" id="download" y="115"><path d="M0 13.5V13H5.48l-1.237-1.494c-.68-.822-1.237-1.496-1.237-1.498h1.998V8.01H2.727C1.164 8.01.443 8.01.419 8a.505.505 0 0 1-.4-.355l-.016-.052V.437l.013-.05a.507.507 0 0 1 .36-.36l.05-.013H10.575l.048.013a.51.51 0 0 1 .361.358l.013.046L11 3.72 11 7.01h-.999L10 4.013l-.002-2.997H1.002v5.998h2.282c2.273 0 2.283 0 2.332.012a.5.5 0 0 1 .332.268c.052.106.047-.042.048 1.417l.002 1.296H7.995s-.556.676-1.236 1.496l-1.236 1.495H11V14H0v-.5z" fill="#9eafb4"></path></svg><svg id="fb" viewBox="0 0 12 22" width="12" height="22" y="129"><style>.st0{fill:#b9c5f0}</style><path class="st0" d="M11.4.3H8.6C5.5.3 3.4 2.4 3.4 5.6V8H.6c-.2 0-.4.2-.4.4V12c0 .2.2.4.4.4h2.8v8.9c0 .2.2.4.4.4h3.7c.2 0 .4-.2.4-.4v-8.9h3.3c.2 0 .4-.2.4-.4V8.5c0-.1 0-.2-.1-.3 0-.2-.1-.2-.3-.2H8V5.9c0-1 .2-1.5 1.5-1.5h1.9c.2 0 .4-.2.4-.4V.7c0-.3-.2-.4-.4-.4z"></path></svg><svg viewBox="0 0 14 18" height="18" width="14" id="guarantee" y="151"><path d="M1.983 17.99c-.028-.01-.08-.025-.114-.041a.379.379 0 0 1-.125-.093.543.543 0 0 1-.086-.108 60.445 60.445 0 0 1-.645-1.628.549.549 0 0 1 .01-.267c.017-.05.01-.039.717-1.3l.515-.92h.135c.12 0 .135 0 .14.014.005.01.028.082.054.167.066.224.09.29.147.406.25.509.745.899 1.299 1.023.154.034.234.043.403.044.248 0 .46-.038.66-.122.242-.1.358-.147.36-.144.003 0-.296.543-.662 1.204-.463.836-.678 1.217-.705 1.251a.624.624 0 0 1-.258.188c-.02.01-.402.086-.849.174-.87.17-.895.175-.996.153zm9.816-.001c-.174-.03-1.61-.316-1.638-.327a.584.584 0 0 1-.236-.176c-.027-.033-.24-.41-.689-1.219l-.65-1.17.02-.027a.966.966 0 0 1 .042-.055l.024-.028.133.053c.236.095.378.138.567.17.127.022.377.027.512.011.268-.033.536-.126.766-.265.244-.15.478-.384.629-.633.1-.167.148-.281.233-.567l.062-.204h.139l.614 1.112c.338.612.62 1.124.626 1.138.04.09.05.218.025.317a41.99 41.99 0 0 1-.65 1.626.556.556 0 0 1-.258.203.615.615 0 0 1-.271.037zm-4.84-3.992a.933.933 0 0 1-.528-.236c-.02-.02-.107-.11-.19-.202a5.007 5.007 0 0 0-.198-.205.951.951 0 0 0-.464-.22 1.115 1.115 0 0 0-.366.013 5.45 5.45 0 0 0-.313.118c-.332.134-.38.147-.553.147a.904.904 0 0 1-.815-.49 4.261 4.261 0 0 1-.117-.317 4.821 4.821 0 0 0-.12-.326.92.92 0 0 0-.554-.475c-.097-.031-.171-.041-.426-.06a6.135 6.135 0 0 1-.313-.03 1.089 1.089 0 0 1-.258-.084 1.012 1.012 0 0 1-.344-.296 1.086 1.086 0 0 1-.13-.273c-.045-.155-.044-.272.003-.555.03-.177.032-.201.033-.328a.646.646 0 0 0-.018-.202.934.934 0 0 0-.193-.375C.993 9.48.917 9.424.663 9.288c-.225-.12-.268-.15-.363-.244a.927.927 0 0 1-.256-.475 1.26 1.26 0 0 1-.003-.339c.015-.074.048-.17.079-.232.014-.029.09-.15.167-.267.171-.262.181-.28.214-.363a.846.846 0 0 0 .06-.324.843.843 0 0 0-.092-.401c-.039-.078-.062-.11-.196-.275-.124-.15-.165-.212-.201-.297A.92.92 0 0 1 .4 4.956c.029-.02.136-.081.238-.136.207-.111.257-.144.342-.225a.921.921 0 0 0 .274-.516c.018-.111.013-.174-.035-.471-.052-.322-.058-.396-.04-.514a.888.888 0 0 1 .612-.723c.077-.025.176-.042.28-.049.4-.026.514-.042.64-.092a.933.933 0 0 0 .436-.347c.07-.106.1-.182.155-.393.06-.232.077-.286.119-.368a.959.959 0 0 1 .66-.491c.034-.01.099-.01.181-.01.166 0 .195.01.497.13.303.121.369.138.54.138a.89.89 0 0 0 .514-.148c.083-.054.149-.12.3-.303.072-.088.153-.179.18-.202a.976.976 0 0 1 1.039-.15c.141.068.197.113.388.32.24.26.29.304.439.376.205.1.453.12.665.055l.286-.111c.13-.053.268-.104.306-.114a.933.933 0 0 1 .982.36c.058.08.085.146.18.428.05.148.102.29.115.317.06.127.181.27.295.348.112.077.255.136.384.16.034.01.174.02.312.03.137.01.278.024.313.03a.936.936 0 0 1 .693.56c.048.12.06.185.06.327.001.12-.001.143-.03.32-.05.296-.05.428 0 .586a.968.968 0 0 0 .34.474c.067.05.106.073.296.173.086.045.18.1.209.12a.965.965 0 0 1 .37.533.624.624 0 0 1 .024.221.726.726 0 0 1-.045.298c-.03.089-.054.131-.196.349-.191.292-.193.296-.225.377a.913.913 0 0 0-.015.628c.046.13.076.177.242.381.12.147.164.213.199.295a.912.912 0 0 1-.202 1.01c-.087.086-.142.123-.354.235-.097.052-.202.11-.232.131-.07.047-.2.177-.248.248a.874.874 0 0 0-.146.63c.077.462.09.57.079.68a.876.876 0 0 1-.478.707c-.15.077-.219.092-.544.116-.289.02-.361.032-.467.067a.92.92 0 0 0-.519.42c-.05.088-.072.15-.129.367-.058.226-.082.293-.134.38a.842.842 0 0 1-.16.2.921.921 0 0 1-.874.234 5.079 5.079 0 0 1-.276-.104c-.283-.115-.345-.132-.513-.137-.096 0-.141 0-.195.01a.943.943 0 0 0-.398.17c-.065.05-.117.107-.253.272-.07.086-.146.171-.168.19-.142.12-.3.198-.471.23-.061.013-.23.02-.279.015zm.209-1.147a1.89 1.89 0 0 1 1.584-.74c.275.01.455.05.769.176.09.036.166.066.17.066.004 0 .02-.051.034-.113.05-.202.099-.333.185-.499.287-.55.818-.927 1.436-1.017a3.71 3.71 0 0 1 .278-.028c.096-.01.176-.015.178-.017a2.77 2.77 0 0 0-.029-.198 5.553 5.553 0 0 1-.04-.28 1.897 1.897 0 0 1 .682-1.606c.124-.103.234-.174.435-.28.05-.026.09-.05.09-.052 0 0-.028-.039-.062-.08a1.988 1.988 0 0 1-.428-.968 2.661 2.661 0 0 1-.004-.505c.046-.327.138-.555.358-.89.068-.103.122-.188.12-.19 0 0-.053-.03-.116-.062a2.255 2.255 0 0 1-.48-.326 1.925 1.925 0 0 1-.606-1.837c.013-.084.023-.155.02-.157-.001 0-.094-.01-.207-.01-.204-.01-.273-.012-.414-.043A1.927 1.927 0 0 1 9.674 1.84c-.08-.236-.078-.229-.086-.229-.004 0-.09.035-.19.077a2.037 2.037 0 0 1-.59.175 3.024 3.024 0 0 1-.482 0 1.99 1.99 0 0 1-.98-.419A4.131 4.131 0 0 1 7 1.101l-.074-.08-.08.102a2.518 2.518 0 0 1-.332.343 1.92 1.92 0 0 1-.94.408c-.119.019-.424.018-.544 0a2.224 2.224 0 0 1-.554-.16 2.406 2.406 0 0 0-.173-.066.386.386 0 0 0-.035.109 2.13 2.13 0 0 1-.175.481 1.92 1.92 0 0 1-1.087.95c-.187.065-.326.09-.606.113-.113.01-.208.018-.21.02-.001 0 .012.09.03.198.05.305.057.462.032.663-.06.482-.315.934-.698 1.242a2.18 2.18 0 0 1-.366.236c-.075.04-.136.075-.136.077 0 0 .033.045.074.096.226.28.367.61.42.983.013.088.013.384 0 .475-.045.325-.138.557-.358.89a3.666 3.666 0 0 0-.12.189l.131.07c.228.122.38.233.542.394.165.165.274.317.376.523.127.26.184.489.192.774.005.16-.002.238-.038.465a2.846 2.846 0 0 0-.023.155c.001 0 .096.01.211.01.232.01.324.02.491.063.548.144.994.507 1.24 1.01.04.08.077.172.118.294l.075.22c.008.022.017.041.021.041s.082-.032.173-.07c.248-.105.312-.127.464-.158a1.942 1.942 0 0 1 1.255.17c.24.12.395.241.627.494.074.08.137.146.14.146.003 0 .05-.054.105-.12zm-.363-2.856a3.016 3.016 0 0 1-2.79-2.663 4.326 4.326 0 0 1-.004-.633 3.008 3.008 0 0 1 .828-1.775 2.977 2.977 0 0 1 3.464-.62 3.02 3.02 0 0 1 1.65 2.2c.03.185.037.271.037.5 0 .234-.01.349-.044.536A3.025 3.025 0 0 1 8.162 9.76a2.995 2.995 0 0 1-1.357.233zm.36-1.002A2.004 2.004 0 0 0 8.893 7.63c.076-.23.097-.365.097-.63s-.02-.4-.096-.629a1.999 1.999 0 0 0-3.88.364c-.013.09-.013.44 0 .53.045.298.154.59.309.825a2 2 0 0 0 1.844.902z" fill="#fff"></path></svg><svg viewBox="0 0 30 30" height="30" width="30" id="help" y="169"><path d="M14.575 29.995c-.213-.01-.273-.013-.184-.017.11-.01.088-.01-.133-.02a14.955 14.955 0 0 1-4.029-.759c-2.866-.96-5.432-2.83-7.264-5.293a17.563 17.563 0 0 1-1.164-1.826A14.898 14.898 0 0 1 .04 15.742c-.01-.213-.014-.24-.019-.133-.003.073-.01-.034-.016-.238a15.3 15.3 0 0 1 0-.742c.006-.204.013-.311.016-.238.004.107.008.08.019-.133.066-1.366.322-2.723.76-4.028.96-2.866 2.83-5.43 5.294-7.262.496-.37 1.274-.865 1.826-1.164A14.906 14.906 0 0 1 14.258.04c.213-.01.24-.014.133-.018-.073 0 .034-.01.238-.016.204-.01.538-.01.742 0 .204.01.311.013.238.016-.107 0-.08.01.133.018 1.366.066 2.724.323 4.029.76 2.866.961 5.432 2.83 7.264 5.293.369.497.865 1.274 1.164 1.826a14.898 14.898 0 0 1 1.763 6.338c.01.213.014.24.018.133.003-.073.01.034.016.238a15.3 15.3 0 0 1 0 .742c-.006.204-.013.311-.016.238-.004-.107-.008-.08-.018.133a14.958 14.958 0 0 1-.76 4.028c-.961 2.866-2.831 5.431-5.294 7.263-.497.369-1.275.864-1.827 1.163a14.909 14.909 0 0 1-3.42 1.33c-.902.228-2.003.392-2.894.43-.256.011-.275.013-.158.022.108.01.086.01-.118.012-.139 0-.33.01-.426.01h-.49zM16.035 28c2.017-.17 3.88-.763 5.613-1.788.141-.084.19-.122.191-.147 0-.04-2.913-2.96-2.953-2.96-.015 0-.128.044-.25.098a9.064 9.064 0 0 1-1.993.617c-.588.109-.972.142-1.643.142a7.808 7.808 0 0 1-1.643-.142 9.064 9.064 0 0 1-1.992-.617 2.008 2.008 0 0 0-.25-.098c-.04 0-2.954 2.92-2.954 2.96 0 .079 1.02.625 1.743.934 1.385.593 2.825.929 4.396 1.025.344.021 1.368.01 1.734-.024zm-8.053-4.524c.953-.953 1.413-1.425 1.413-1.448 0-.024-.06-.083-.196-.19A10.075 10.075 0 0 1 8.161 20.8c-.108-.135-.168-.196-.191-.196-.048 0-2.862 2.814-2.862 2.861 0 .1 1.327 1.425 1.426 1.425.023 0 .492-.458 1.448-1.413zm15.735 1.218c.47-.426 1.175-1.163 1.175-1.23 0-.048-2.814-2.86-2.862-2.86-.023 0-.082.06-.19.195-.202.252-.787.837-1.04 1.038-.134.108-.195.168-.195.191 0 .048 2.814 2.861 2.862 2.861.02 0 .121-.079.25-.195zm-8.241-2.674a7.91 7.91 0 0 0 .967-.134 7.062 7.062 0 0 0 5.445-5.444 7.043 7.043 0 0 0-8.33-8.33 7.062 7.062 0 0 0-5.446 5.445 7.032 7.032 0 0 0 2.501 6.938 7.029 7.029 0 0 0 4.863 1.525zM5.429 20.375c.806-.805 1.464-1.475 1.464-1.49 0-.014-.044-.127-.098-.25-.41-.937-.629-1.79-.739-2.876a14.499 14.499 0 0 1 0-1.518c.11-1.085.33-1.938.74-2.875.053-.123.097-.236.097-.25 0-.04-2.92-2.954-2.96-2.953-.025 0-.063.049-.147.191-1.03 1.738-1.615 3.58-1.791 5.63a16.804 16.804 0 0 0 0 2.034c.176 2.048.762 3.89 1.79 5.629.085.141.123.19.147.191.022 0 .527-.493 1.497-1.463zm20.785 1.272c1.03-1.739 1.616-3.58 1.792-5.63.04-.478.04-1.555 0-2.034-.176-2.048-.762-3.89-1.792-5.629-.084-.142-.121-.191-.146-.191-.04 0-2.961 2.912-2.961 2.953 0 .014.044.127.098.25.41.937.63 1.79.74 2.875.026.262.026 1.257 0 1.518-.11 1.086-.33 1.939-.74 2.876a2.018 2.018 0 0 0-.098.25c0 .04 2.92 2.953 2.96 2.953.026 0 .063-.049.147-.191zM8.161 9.2c.202-.252.786-.837 1.038-1.039.135-.108.196-.167.196-.19 0-.048-2.814-2.861-2.861-2.861-.1 0-1.426 1.326-1.426 1.425 0 .048 2.814 2.86 2.862 2.86.023 0 .083-.06.19-.195zm15.317-1.218c.957-.957 1.414-1.424 1.414-1.447 0-.1-1.326-1.425-1.425-1.425-.048 0-2.862 2.813-2.862 2.86 0 .025.06.084.196.191.252.202.837.787 1.038 1.039.109.135.168.196.191.196.023 0 .497-.463 1.448-1.414zM11.365 6.797c.937-.41 1.79-.629 2.876-.739a14.234 14.234 0 0 1 1.518 0c1.086.11 1.94.33 2.876.74.123.053.236.097.25.097.04 0 2.954-2.92 2.954-2.96 0-.025-.05-.062-.191-.147-1.74-1.029-3.582-1.615-5.63-1.79a16.85 16.85 0 0 0-2.035 0c-2.05.175-3.892.761-5.63 1.79-.142.084-.192.122-.192.147 0 .04 2.913 2.96 2.954 2.96.014 0 .127-.044.25-.098z" fill="#9eafb4"></path></svg><svg viewBox="0 0 50 25" height="25" width="50" id="ic1" y="199"><path d="M13.548 24.279l-.703-.721.378-.382 8.925-9.08c4.701-4.784 8.802-8.954 9.112-9.266l.563-.568-1.043-1.06c-.574-.583-1.034-1.07-1.022-1.082.031-.029 7.593-2.085 7.609-2.068.013.013-2.014 7.73-2.036 7.753-.007.007-.483-.466-1.058-1.05L33.23 5.692l-9.08 9.234c-4.995 5.079-9.265 9.423-9.49 9.654l-.408.42-.703-.721zm12.67-.015a20.094 20.094 0 0 1-.688-.722c0-.01 4.25-4.337 9.442-9.616 5.194-5.28 9.443-9.608 9.443-9.62 0-.013-.467-.498-1.037-1.08a42.29 42.29 0 0 1-1.026-1.063C42.364 2.153 49.992.075 50 .08c.008.005-2.015 7.676-2.04 7.735-.018.042-.19-.123-1.066-1.013L45.85 5.74l-.497.5c-.274.275-4.527 4.598-9.453 9.606-4.926 5.009-8.964 9.11-8.975 9.115-.01.004-.328-.31-.706-.697zM.7 24.174l-.7-.715 1.207-1.227C11.427 11.845 18.88 4.26 18.89 4.233c.007-.018-.448-.5-1.03-1.092-.574-.583-1.031-1.063-1.016-1.068.129-.043 7.622-2.076 7.63-2.07.009.009-2.026 7.754-2.043 7.776-.006.007-.089-.07-.185-.171a179.59 179.59 0 0 0-1.048-1.069l-.873-.885-9.455 9.617c-5.2 5.289-9.459 9.616-9.463 9.616-.004 0-.322-.321-.707-.714z" fill="#9eafb4"></path></svg><svg viewBox="0 0 47 17" height="17" width="47" id="ic2" y="224"><path d="M6.28 16.96c-.051-.04-.06-.074-.036-.125.008-.017.17-.11.36-.206 1.505-.765 2.785-1.81 4.587-3.746.27-.29.815-.863 1.211-1.273a356.07 356.07 0 0 0 3.294-3.45c.007-.015-.13-.186-.304-.382-.546-.611-1.249-1.472-2.126-2.604l-.101-.13-.231.295C11.6 7.04 10.405 8.379 9.262 9.452a26.502 26.502 0 0 1-3.47 2.729C4.006 13.342 2.145 14.198.41 14.656c-.324.085-.377.091-.4.045-.03-.066-.006-.087.254-.217 1.207-.601 2.46-1.641 4.066-3.374a128.016 128.016 0 0 1 2.887-3.05A48.004 48.004 0 0 0 9.566 5.5a53.113 53.113 0 0 0 1.69-2.088c.237-.318.603-.75.937-1.11.543-.584.97-1.017.989-1 .046.041.78.817.975 1.03.296.324.643.75 1.254 1.542.578.748 1.988 2.407 2.045 2.406.065 0 1.671-1.92 2.622-3.132a27.262 27.262 0 0 1 1.044-1.258c.51-.596 1.724-1.91 1.746-1.89l.609.642c1.151 1.215 1.554 1.679 2.384 2.744.664.852 1.654 2.04 2.42 2.904.328.37 1.129 1.245 1.18 1.29.01.009.178-.161.372-.378.64-.713 1.3-1.52 1.78-2.175.244-.334.453-.584.924-1.104.514-.568.789-.862 1.064-1.14l.223-.227.05.05c.473.456.79.793 1.213 1.288.173.202.403.466.51.586.106.12.291.349.41.507 1 1.332 2.057 2.553 3.408 3.938a525.85 525.85 0 0 1 3.685 3.849c1.013 1.076 1.587 1.612 2.28 2.126a9.32 9.32 0 0 0 1.441.886c.186.088.216.128.14.188a.248.248 0 0 1-.044.032c-.05 0-.905-.252-1.22-.36-2.783-.95-5.558-2.68-8.036-5.01-1.108-1.042-2.246-2.312-3.5-3.908-.18-.23-.33-.42-.334-.423-.003-.003-.17.202-.372.457-.827 1.043-1.411 1.739-1.972 2.347l-.27.293.317.323c.587.6 1.323 1.374 1.983 2.084l1.053 1.133c1.615 1.737 2.96 2.846 4.345 3.581l.5.267c.056.03.093.066.093.09 0 .047-.082.12-.136.12-.051 0-.743-.199-1.178-.339-2.802-.9-5.662-2.472-8.306-4.563-.792-.627-1.891-1.573-2.265-1.95a155.682 155.682 0 0 0-.803-.805c-.996-.997-2.294-2.49-3.503-4.027a17.52 17.52 0 0 0-.418-.521c-.02-.018-.134.11-.448.506-1.794 2.26-3.287 3.908-4.685 5.174-2.897 2.623-5.821 4.511-8.83 5.7-.726.288-1.77.63-2.357.773-.253.062-.234.061-.295.012z" fill="#9eafb4"></path></svg><svg viewBox="0 0 32 35" height="35" width="32" id="ic3" y="241"><path d="M0 31v-4h32v8H0v-4zm29.996 0v-1.996H2.004v3.992h27.992V31zM2.998 31v-1.002H12v1.987H2.998v-1.002zM0 22.006v-4h32v8H0v-4zm29.996-.01v-2.004H2.004V24h27.992v-2.004zm-26.987 1C3 22.986 3 22.539 3 21.994v-.991h15.006v1.995h-7.488c-4.118 0-7.493 0-7.499-.01zM0 12.994v-4h32v8H0v-4zm29.996.01V11H2.004v4.008h27.992v-2.004zm-26.994 0v-.998h19.992v1.996H2.985v-.998zM0 4.006v-4h32v8H0v-4zm29.996 0V2.011H2.004v3.991h27.992V4.006zm-26.998 0V3.004h23.006v2.004H2.998V4.006z" fill="#9eafb4"></path></svg><svg viewBox="0 0 42 39" height="39" width="42" id="ic4" y="276"><path d="M17.83 38.974c-.305-.06-.555-.161-1.166-.48-.59-.307-.597-.31-.766-.318-.151-.01-.195 0-.38.069-.116.043-.34.136-.498.208-.598.27-.897.34-1.393.323-.275-.01-.366-.021-.529-.072-.788-.242-1.323-.8-1.51-1.571-.057-.236-.052-.71.01-.966.093-.381.252-.659.562-.978l.172-.177-.089-.181c-.185-.38-.272-.752-.3-1.288l-.015-.28-.113.015c-.714.103-1.208 0-1.738-.354-.432-.29-.718-.617-1.298-1.483-.556-.831-.75-1.241-1.245-2.644a27.61 27.61 0 0 0-.345-.924 8.764 8.764 0 0 1-.32-.931c-.055-.18-.038-.161-.373-.38a2.516 2.516 0 0 1-.318-.259c-.569-.561-.724-1.278-.433-2.002l.06-.15-.263-.014a2.316 2.316 0 0 1-1.557-.707c-.292-.296-.556-.755-.698-1.215l-.068-.218-.302-.05c-.506-.085-.833-.22-1.134-.468a1.72 1.72 0 0 1-.542-.873c-.065-.24-.056-.784.02-1.205.033-.182.06-.34.06-.353 0-.012-.055-.036-.123-.051-.274-.063-.63-.3-.817-.541-.456-.59-.502-1.425-.142-2.56.29-.918.46-1.256.945-1.882.287-.37.369-.528.546-1.055.373-1.113.751-1.572 1.736-2.112.513-.28.57-.337.872-.852.108-.186.235-.396.282-.467a.793.793 0 0 0 .084-.15c0-.01-.044-.09-.099-.175-.5-.782-.362-1.754.35-2.455.102-.102.35-.31.548-.463l.593-.457c.127-.097.245-.187.263-.197.027-.015.028-.036.008-.12a2.534 2.534 0 0 1-.05-.757c.03-.315.072-.477.194-.735.086-.184.13-.244.302-.42.23-.234.4-.338.71-.433.286-.088.77-.101 1.333-.035.222.026.448.047.5.047.177 0 .466-.066 1.054-.239.985-.29 1.354-.345 2.022-.302l.386.025.106-.07c.058-.038.156-.109.217-.156l.11-.086-.015-.102a2.073 2.073 0 0 1 .176-1.146c.21-.433.614-.818 1.02-.972.441-.168.91-.166 1.541.01.135.037.42.102.632.146.544.11.735.19 1.02.426.073.06.145.109.16.109.016 0 .12-.026.233-.056.788-.217 1.692-.054 2.492.445a3.29 3.29 0 0 1 1.34 1.647c.102.275.185.439.399.788.255.418.393.673.495.91.297.694.32 1.203.078 1.736l-.078.173.102.16c.186.297.3.686.3 1.036v.138l.157.182c.274.317.428.568.516.844.021.069.048.114.064.11.014 0 .182-.062.372-.124a5.333 5.333 0 0 1 1.08-.263c.55-.071.688-.11 1.164-.337.414-.196.616-.245 1.329-.322l.138-.014.218-.298c.258-.354.481-.578.735-.739.323-.203.606-.297 1.204-.398.194-.033.483-.1.64-.149.363-.112.568-.17 1.162-.329a20.685 20.685 0 0 0 1.813-.56c1.125-.404 2.388-.81 2.708-.871.272-.051.69-.035.907.036.536.175.945.58 1.138 1.128.234.662.082 1.25-.482 1.868l-.206.225.028.26a1.88 1.88 0 0 1-.084.842c-.05.163-.06.224-.047.306.033.21.022.664-.023.953-.025.156-.051.345-.06.42l-.014.136.12.182c.162.242.272.471.328.682.094.35.09.81-.012 1.292-.14.664-.137.615-.076.877.045.196.053.29.052.575-.001.32-.005.353-.072.56-.04.12-.106.298-.149.394a1.216 1.216 0 0 0-.071.182c.003 0 .11.018.238.034.652.076 1.126.313 1.453.726.141.177.32.542.374.76.047.192.053.562.012.737a2.253 2.253 0 0 1-.127.334c-.132.282-.394.567-.715.778-.541.355-1.13.764-1.13.786-.001.01.166.06.37.112.805.21 1.254.432 1.617.8.535.544.877 1.302 1.219 2.704.165.677.187.844.17 1.305-.017.48-.104.867-.266 1.182l-.071.138.136.195c.17.243.258.455.34.831.08.356.094.393.278.706.31.53.388.839.344 1.383a2.8 2.8 0 0 0 .013.613c.1.954-.13 1.54-.774 1.971a1.7 1.7 0 0 1-1.02.3c-.245 0-.337-.012-.684-.083a.868.868 0 0 0-.243-.024c-.03.01-.163.105-.295.216-.42.352-.648.495-.965.604-.351.12-.679.12-1.056 0a.877.877 0 0 0-.186-.049 1.62 1.62 0 0 0-.062.184c-.112.362-.366.693-.765.996-.274.209-.287.22-.627.608-.374.425-.582.633-.8.801a2.785 2.785 0 0 1-.815.412c-.625.183-1.135.113-1.927-.265a3.265 3.265 0 0 0-.71-.255c-.43-.111-.694-.214-.923-.361-.438-.281-.723-.616-1.119-1.313a5.455 5.455 0 0 0-.142-.244c-.003 0-.059.019-.125.043-.139.049-.283.078-.634.125-.278.037-.293.044-.622.267-.477.324-.827.424-1.323.377-.493-.046-.82-.198-1.471-.686l-.192-.144-.118.021a9.857 9.857 0 0 0-.275.054l-.158.035-.01.255c-.019.433-.15.749-.447 1.076a1.64 1.64 0 0 1-1.142.565c-.221.017-.474-.013-.867-.107-.237-.056-.291-.063-.32-.038-.02.016-.12.162-.223.324-.103.162-.282.428-.399.59-.394.551-.456.69-.556 1.25-.082.463-.131.642-.244.89-.18.398-.443.686-.783.856-.11.055-.26.117-.332.137-.19.051-.58.062-.794.021zm.286-2.767c.143-.536.387-1.019.785-1.556.07-.094.227-.324.347-.51.267-.411.451-.65.608-.785.484-.421 1.014-.58 1.626-.487.137.021.264.043.281.05.025.01.022-.015-.014-.12a1.033 1.033 0 0 1 .208-1.043c.184-.205.366-.282 1.144-.484.837-.217 1.376-.298 1.672-.253.38.058.65.19 1.142.56.173.13.337.243.363.25.035.01.101-.024.244-.122.441-.305.74-.417 1.307-.492.238-.032.316-.054.634-.184.433-.175.654-.237.85-.236.486 0 .844.281 1.077.84.113.269.548 1.008.679 1.15.12.13.168.152.557.244.351.084.486.133.908.332.443.208.515.226.658.16.132-.06.258-.182.658-.639.325-.372.472-.517.708-.7l.124-.094-.085-.3c-.106-.374-.122-.523-.077-.738.09-.437.44-.835.874-.992.167-.06.425-.084.632-.057.287.037.509.116.989.357l.435.218.261-.216c.334-.276.425-.338.675-.462.46-.226.912-.266 1.534-.134l.067.014-.02-.178a4.765 4.765 0 0 1-.008-.525l.012-.346-.117-.198c-.232-.39-.31-.584-.422-1.043-.069-.284-.08-.31-.18-.43-.41-.484-.521-.723-.523-1.12-.002-.337.075-.574.315-.974.15-.249.191-.41.171-.656-.015-.19-.232-1.074-.35-1.43-.11-.332-.3-.733-.407-.86-.132-.157-.246-.202-1.005-.4-.508-.132-.728-.205-.94-.314-.338-.174-.6-.419-.735-.687a24.247 24.247 0 0 1-.475-1.168c-.035-.1-.042-.168-.036-.34a.767.767 0 0 1 .09-.394c.166-.356.466-.567 1.045-.732.316-.09.336-.1.68-.348l.24-.17-.229-.05c-.587-.126-.999-.437-1.243-.939a2.072 2.072 0 0 1-.216-.953c.002-.32.057-.524.247-.919l.153-.318-.04-.173c-.115-.493-.106-.78.045-1.474.048-.22.087-.428.087-.461 0-.037-.06-.153-.153-.299-.341-.53-.42-1.023-.298-1.869.053-.371.055-.414.03-.63a2.102 2.102 0 0 1 .067-.899l.07-.222-.046-.2a1.517 1.517 0 0 1-.003-.71c.042-.169.142-.4.227-.522.03-.044.034-.063.013-.062-.016 0-.457.149-.98.33-1.422.494-1.632.56-2.487.795-.432.118-.924.256-1.095.307-.517.156-.606.177-.962.236-.542.09-.518.076-.775.43-.29.397-.55.652-.809.788-.316.167-.504.216-1.069.28-.317.036-.324.038-.638.183a4.485 4.485 0 0 1-1.463.427c-.398.051-.478.071-.884.207-.736.245-1.13.303-1.571.228-.594-.1-1.242-.466-1.42-.802a1.062 1.062 0 0 1-.102-.715l.024-.126-.166-.21c-.29-.37-.44-.735-.471-1.15l-.015-.2-.165-.113c-.196-.135-.414-.365-.499-.526a1.566 1.566 0 0 1-.148-.641c0-.361.128-.656.4-.92a.98.98 0 0 0 .175-.195c0-.038-.122-.258-.388-.702a6.144 6.144 0 0 1-.528-1.049 1.86 1.86 0 0 0-.177-.353c-.169-.235-.49-.446-.804-.528-.228-.06-.352-.055-.627.024-.85.244-1.337.162-1.835-.309-.162-.152-.168-.155-.429-.2a7.193 7.193 0 0 1-.516-.117 2.43 2.43 0 0 0-.313-.073c-.01 0 .025.066.077.137.355.48.245 1.152-.24 1.474a1.127 1.127 0 0 1-.256.122l-.203.056c-.045.012-.214.12-.376.24-.7.513-1.075.63-1.863.574-.537-.037-.69-.012-1.606.26-.964.285-1.323.324-2.11.228a5.694 5.694 0 0 0-.324-.032h-.058l.04.147c.118.44.055.901-.18 1.313-.127.22-.404.497-.784.782-.334.25-1.016.777-1.041.804-.009.01.12.15.286.314.261.258.312.32.384.47.082.17.084.178.084.435 0 .247-.004.27-.07.414a1.144 1.144 0 0 1-.42.475c-.201.139-.262.217-.54.69-.351.6-.566.882-.854 1.127-.242.205-.333.266-.754.499-.633.35-.644.364-.904 1.127-.242.707-.356.925-.767 1.466-.323.424-.373.506-.478.77-.092.232-.272.785-.299.916l-.015.074h.111c.3 0 .565.118.789.35.186.193.28.366.358.665.055.207.058.254.058.72 0 .467-.004.524-.068.863-.038.2-.062.37-.054.378.008.01.185.036.394.063.544.068.773.157 1.02.396.22.214.33.43.492.984.1.339.172.505.262.604.105.116.151.128.55.141.727.024 1.03.08 1.368.25.453.229.758.655.825 1.155.055.403-.072.82-.404 1.332l-.039.061.206.143c.113.079.29.23.395.337.234.24.321.409.484.934.134.433.154.489.329.928.072.18.216.569.32.862.334.942.479 1.298.672 1.645.149.268.72 1.098.873 1.27.074.082.176.175.229.206l.095.057.339-.049c.379-.054.702-.05.936.012.585.158 1.004.524 1.203 1.053.095.253.132.474.16.938.013.228.037.46.052.517.016.056.089.236.163.398.198.438.235.591.234.964 0 .27-.007.327-.06.488-.092.283-.2.447-.497.762-.149.157-.27.297-.27.311 0 .013.037.037.084.051.119.037.265-.01.722-.212.626-.282.955-.374 1.415-.394.586-.026.979.099 1.912.605l.298.161.05-.28a6.67 6.67 0 0 1 .085-.414z" fill="#9eafb4"></path></svg><svg viewBox="0 0 46 32" height="32" width="46" id="ic5" y="315"><path d="M0 16V0h46v32H0V16zm43.99 0V2.01H2.01v27.98h41.98V16zM24.377 27.98a1.59 1.59 0 0 1-.526-.183 1.388 1.388 0 0 1-.463-.499c-.09-.183-3.522-12.89-3.56-13.18a1.509 1.509 0 0 1 .2-.945c.111-.184.373-.424.576-.526.243-.122.445-.164.738-.15.23.01.546.093 6.682 1.77 7.185 1.966 6.712 1.822 7.021 2.132.281.281.423.616.423.997 0 .235-.046.424-.16.661a1.484 1.484 0 0 1-.627.624c-.093.044-1.552.573-3.243 1.177l-3.073 1.098-1.156 3.107c-.635 1.71-1.19 3.179-1.234 3.265-.257.507-.873.759-1.598.652zm1.382-5.76c.523-1.403.956-2.53.997-2.594a.948.948 0 0 1 .418-.358c.08-.036 1.229-.45 2.55-.922 1.322-.472 2.403-.863 2.403-.87 0-.014-10.072-2.767-10.081-2.755 0 0 .606 2.285 1.357 5.067l1.366 5.071c0 .015-.088.258.99-2.638zm-10.3-2.478a.479.479 0 0 1-.254-.395c0-.16.082-.254.944-1.101.47-.462.89-.857.933-.877a.44.44 0 0 1 .479.079.39.39 0 0 1 .137.325.353.353 0 0 1-.071.238c-.116.174-1.646 1.684-1.75 1.727a.651.651 0 0 1-.418 0zm-3.656-5.301a.526.526 0 0 1-.278-.419c0-.089.076-.248.148-.314.145-.134.026-.129 2.762-.128 2.83 0 2.63-.012 2.796.177a.433.433 0 0 1-.144.667l-.106.05h-2.553c-2.079 0-2.566-.01-2.625-.032zm12.706-3.74a.424.424 0 0 1-.225-.49c.024-.092.13-.208.89-.973.484-.486.899-.883.942-.902a.53.53 0 0 1 .339-.01.548.548 0 0 1 .24.222.603.603 0 0 1 .01.365c-.039.075-1.716 1.756-1.795 1.798-.09.048-.278.043-.399-.012zm-7.404-.025c-.12-.056-1.765-1.7-1.803-1.8a.55.55 0 0 1 .01-.353.568.568 0 0 1 .304-.245.427.427 0 0 1 .354.078c.161.12 1.71 1.668 1.755 1.754.025.05.046.129.046.176-.001.1-.07.261-.137.32a.518.518 0 0 1-.529.07zm3.729-.347a.47.47 0 0 1-.151-.151l-.055-.096V7.494l-.001-2.588.058-.1a.427.427 0 0 1 .658-.105c.167.146.155-.055.155 2.791 0 1.86-.01 2.596-.027 2.634a.643.643 0 0 1-.22.224c-.101.053-.305.043-.418-.02z" fill="#9eafb4"></path></svg><svg viewBox="0 0 50 50" height="50" width="50" id="ic6" y="347"><path d="M25.995 48.997v-1h8.003v-1H21.994v-8H14.99v1h-4V35.995h1v-7.998l-2.363-.01c-2.563-.01-2.534-.01-3.28-.167-2.659-.56-4.83-2.383-5.817-4.88a8.172 8.172 0 0 1-.483-1.894c-.057-.412-.065-1.487-.014-1.895A8.017 8.017 0 0 1 1.726 15.1a9.51 9.51 0 0 1 1.209-1.207c1.326-1.054 2.84-1.64 4.6-1.78.252-.02.224.024.27-.434.112-1.103.493-2.384 1.026-3.447 1.314-2.62 3.683-4.597 6.463-5.392a9.916 9.916 0 0 1 2.936-.407c1.206 0 2.286.18 3.394.564l.466.16c.08.028.092.022.316-.168C24.762.995 27.861-.086 30.971.002c3.061.086 5.85 1.174 8.177 3.19a13.02 13.02 0 0 1 3.013 3.88c.763 1.52 1.177 2.97 1.335 4.683l.045.482.395.1a8.037 8.037 0 0 1 5.144 4.03c.752 1.409 1.065 3.14.858 4.758a7.833 7.833 0 0 1-1.623 3.85c-.256.323-.921.993-1.233 1.242a9.115 9.115 0 0 1-1.461.923c-.842.414-1.578.64-2.593.795-.286.044-1.12.047-14.67.054l-14.366.01v8h1v1h7.002v-7h26.009v17H36v1h8.003V50H25.996v-1zm20.007-10.5v-6.501H23.995v13H46.002v-6.5zm-14.005 0v-3.501l.258.15c3.575 2.081 5.717 3.339 5.712 3.354 0 .01-1.298.772-2.876 1.692l-2.982 1.739-.112.065v-3.5zm11.044-12.589c.202-.038.51-.112.684-.162 2.028-.592 3.565-2.15 4.08-4.135.15-.576.184-.85.184-1.5 0-.634-.032-.91-.171-1.464a5.598 5.598 0 0 0-.445-1.194 6.06 6.06 0 0 0-2.672-2.71c-.607-.31-1.038-.442-2.226-.675-.456-.09-.838-.17-.848-.179-.01-.01-.037-.395-.06-.858-.049-.983-.076-1.32-.146-1.796a10.838 10.838 0 0 0-4.725-7.416c-1.512-1.002-3.151-1.587-4.989-1.78-.493-.052-1.759-.044-2.237.014-1.82.221-3.376.789-4.844 1.767-.487.324-.825.592-1.524 1.209-.288.254-.537.462-.554.462-.017 0-.335-.123-.707-.274-.969-.391-1.413-.53-2.111-.657a7.365 7.365 0 0 0-1.54-.13 7.49 7.49 0 0 0-1.609.152 8.62 8.62 0 0 0-4.663 2.652c-1.142 1.28-1.85 2.775-2.099 4.435-.022.148-.076.728-.12 1.289a35.947 35.947 0 0 1-.09 1.05c-.01.018-.213.034-.611.046-.957.03-1.574.065-1.875.11a6.216 6.216 0 0 0-2.782 1.17 5.993 5.993 0 0 0-2.17 3.254c-.136.536-.17.832-.17 1.47 0 .62.032.9.161 1.434.432 1.78 1.731 3.296 3.438 4.011a6.44 6.44 0 0 0 1.875.471c.058.01 8.001.01 17.651.01h17.546l.368-.07z" fill="#9eafb4"></path></svg><svg viewBox="0 0 44 37" height="37" width="44" id="ic7" y="397"><path d="M34.263 36.988a1.016 1.016 0 0 1-.755-.684.908.908 0 0 1-.04-.366.725.725 0 0 1 .095-.375c.078-.157.162-.25 1.074-1.173l.989-1.003-.288-.293c-.158-.162-.617-.627-1.02-1.035-.803-.814-.85-.876-.899-1.193-.102-.658.483-1.247 1.127-1.135.275.048.38.115.74.474.977.972 2.517 2.55 2.57 2.633.187.298.208.66.055.988-.06.13-.189.269-1.167 1.262-1.803 1.832-1.775 1.807-2.064 1.884a1.18 1.18 0 0 1-.417.016zM7.614 34.644a1 1 0 0 1-.119-1.849l.177-.087H29.935l.176.087a.997.997 0 0 1 .289 1.585.9.9 0 0 1-.431.27c-.115.034-1.086.037-11.176.036-10.549 0-11.055 0-11.179-.043zm-4.213-2.97c-.306-.05-.293-.038-1.795-1.557-.759-.768-1.405-1.434-1.436-1.48a1.056 1.056 0 0 1-.152-.763c.063-.3.06-.296 1.552-1.81.765-.777 1.44-1.447 1.5-1.49.395-.28.992-.196 1.307.186.28.34.303.855.056 1.209-.045.064-.523.563-1.063 1.11l-.982.995.994 1.008c.842.854 1.005 1.03 1.064 1.15.364.737-.24 1.57-1.045 1.442zm4.345-3.009c-.395-.066-.732-.416-.802-.832a1.021 1.021 0 0 1 .467-1.012c.263-.158-.282-.146 6.934-.146 7.15 0 6.658-.01 6.918.132.155.085.332.28.416.46a.812.812 0 0 1 .083.342.987.987 0 0 1-.815 1.055c-.165.03-13.02.031-13.2.001zm18.77-.01a1.01 1.01 0 0 1-.787-.976c-.002-.343.214-.717.504-.875.26-.14-.135-.132 5.913-.132 3.502 0 5.571.01 5.647.023.294.056.565.268.7.55.064.133.077.189.085.368.016.345-.071.57-.308.795a.968.968 0 0 1-.513.257c-.214.035-11.08.026-11.241-.01zm13.596-3.372c-.466-.172-.748-.668-.65-1.14.064-.309.093-.344 1.152-1.41.539-.542.98-.996.98-1.01 0-.012-.456-.486-1.013-1.051-1.066-1.081-1.102-1.124-1.163-1.39-.064-.279 0-.595.169-.823a.935.935 0 0 1 .403-.328c.12-.056.16-.062.388-.062.24 0 .264 0 .415.076.18.086.17.075 1.985 1.916.724.733 1.046 1.077 1.09 1.16.127.235.165.509.103.739-.075.281-.088.296-1.549 1.776-1.33 1.348-1.397 1.412-1.564 1.494-.158.078-.193.086-.396.093-.18.01-.248 0-.35-.04zm-32.45-2.654a1.012 1.012 0 0 1-.72-.823c-.063-.397.151-.83.507-1.023.259-.14-.34-.131 8.865-.131 5.727 0 8.478.01 8.579.024.813.132 1.12 1.152.516 1.717a.976.976 0 0 1-.463.247c-.09.019-2.417.026-8.64.024-7.42 0-8.532-.01-8.643-.036zm23.764.01a1.003 1.003 0 0 1-.439-.25c-.222-.219-.313-.459-.298-.786a.727.727 0 0 1 .096-.376.988.988 0 0 1 .736-.547c.205-.033 6.021-.033 6.228 0 .374.06.666.308.788.672a.831.831 0 0 1 .041.369c-.008.19-.02.241-.085.377a1.02 1.02 0 0 1-.677.548c-.158.036-6.255.03-6.39-.01zM7.628 16.608a1 1 0 0 1-.684-.81.996.996 0 0 1 .668-1.093l.142-.048 15.05.01 15.05.01.155.074c.216.103.37.254.476.467.085.172.086.18.086.443 0 .253-.004.276-.074.424-.098.206-.28.389-.487.487l-.157.074-15.054.01c-14.236 0-15.061 0-15.171-.035zm.127-5.983c-.403-.066-.74-.411-.81-.83a1.02 1.02 0 0 1 .488-1.026c.24-.14-.1-.133 5.44-.132 4.149 0 5.083.01 5.178.03.472.127.787.572.745 1.058-.033.392-.273.705-.662.862l-.13.053h-5.06c-2.91 0-5.115-.01-5.189-.018zM3.378 7.268c-.272-.053-.32-.093-1.368-1.15C.064 4.16.105 4.206.032 3.926a1.024 1.024 0 0 1 .096-.754c.065-.111.332-.388 1.908-1.98C3.116.102 3.141.081 3.427.02c.422-.09.876.14 1.077.549.07.14.085.2.095.363a.995.995 0 0 1-.15.612c-.036.054-.514.554-1.063 1.112L2.39 3.669l.98.996c.559.569 1.009 1.045 1.049 1.112.355.587 0 1.366-.68 1.491a.756.756 0 0 1-.36 0zm4.339-2.662c-.497-.098-.858-.627-.773-1.133.072-.427.39-.754.809-.834.172-.033 22.923-.033 23.095 0 .472.089.81.498.81.98a.986.986 0 0 1-.783.985c-.147.031-23 .033-23.158 0z" fill="#9eafb4"></path></svg><svg id="in" viewBox="0 0 22 22" width="22" height="22" y="434"><style>.st0{fill:#b9c5f0}</style><g id="XMLID_13_"><path id="XMLID_17_" class="st0" d="M15.4 0H6.6C2.9 0 0 2.9 0 6.6v8.9C0 19.1 2.9 22 6.6 22h8.9c3.6 0 6.6-2.9 6.6-6.6V6.6C22 2.9 19.1 0 15.4 0zm4.4 15.4c0 2.4-1.9 4.3-4.3 4.3H6.6c-2.4 0-4.3-1.9-4.3-4.3V6.6c0-2.4 1.9-4.3 4.3-4.3h8.9c2.4 0 4.3 1.9 4.3 4.3v8.8z"></path><path id="XMLID_81_" class="st0" d="M11 5.3c-3.1 0-5.7 2.6-5.7 5.7s2.6 5.7 5.7 5.7 5.7-2.6 5.7-5.7-2.6-5.7-5.7-5.7zm0 9.2c-1.9 0-3.5-1.6-3.5-3.5S9.1 7.5 11 7.5s3.5 1.6 3.5 3.5-1.6 3.5-3.5 3.5z"></path><circle id="XMLID_83_" class="st0" cx="16.7" cy="5.4" r="1.4"></circle></g></svg><svg id="link" viewBox="0 0 15 15" width="15" height="15" y="456"><style>.st0{fill:#a1adb2}</style><path class="st0" d="M8.1 10.1c-.9 0-1.8-.4-2.5-1l.7-.7c.9.9 2.6.9 3.5 0L13 5.2c.5-.5.7-1.1.7-1.7 0-.7-.3-1.3-.7-1.7-.9-.9-2.6-.9-3.5 0L7.1 4.1l-.7-.7L8.8 1c1.3-1.3 3.6-1.3 4.9 0 .7.7 1 1.5 1 2.5 0 .9-.4 1.8-1 2.5l-3.2 3.2c-.6.5-1.5.9-2.4.9z"></path><path class="st0" d="M3.6 14.6c-.9 0-1.8-.4-2.5-1-.7-.7-1-1.5-1-2.5 0-.9.4-1.8 1-2.5l3-3c1.3-1.3 3.6-1.3 4.9 0l-.6.8c-.9-.9-2.6-.9-3.5 0l-3 3c-.5.5-.7 1.1-.7 1.7 0 .7.3 1.3.7 1.7.9.9 2.6.9 3.5 0l2.1-2.1.7.7-2.1 2.1c-.7.7-1.6 1.1-2.5 1.1z"></path></svg><svg viewBox="0 0 12 12" height="12" width="12" id="list_c3" y="471"><path d="M5.775 11.996a5.972 5.972 0 0 1-3.363-1.19 5.995 5.995 0 0 1-.198-9.46 5.994 5.994 0 0 1 8.439.868 5.995 5.995 0 0 1-.867 8.439 5.978 5.978 0 0 1-4.011 1.342zM8.718 6.4l1.845-1.841-.71-.711-.712-.711-1.745 1.745L5.65 6.628 4.582 5.56A121.333 121.333 0 0 0 3.507 4.49c-.01 0-1.41 1.402-1.406 1.41.001 0 .8.807 1.775 1.785L5.65 9.464l.611-.61L8.718 6.4z" fill="#333"></path></svg><svg viewBox="0 0 12 12" height="12" width="12" id="list_cg" y="483"><path d="M5.775 11.996a5.972 5.972 0 0 1-3.363-1.19 5.995 5.995 0 0 1-.198-9.46 5.994 5.994 0 0 1 8.439.868 5.995 5.995 0 0 1-.867 8.439 5.978 5.978 0 0 1-4.011 1.342zM8.718 6.4l1.845-1.841-.71-.711-.712-.711-1.745 1.745L5.65 6.628 4.582 5.56A121.333 121.333 0 0 0 3.507 4.49c-.01 0-1.41 1.402-1.406 1.41.001 0 .8.807 1.775 1.785L5.65 9.464l.611-.61L8.718 6.4z" fill="#23ce42"></path></svg><svg width="14" height="14" viewBox="0 0 14 14" id="list_cg_b" y="495"><path d="M6.737 13.995a6.968 6.968 0 0 1-3.923-1.387 6.994 6.994 0 0 1-1.423-9.794 6.993 6.993 0 0 1 11.037-.231 6.994 6.994 0 0 1 .18 8.602c-.34.455-.748.88-1.191 1.243a6.975 6.975 0 0 1-4.68 1.567zm3.434-6.527l2.153-2.148-.83-.83-.83-.83-2.036 2.036-2.036 2.036-1.246-1.246c-.685-.685-1.25-1.246-1.254-1.246-.013 0-1.644 1.635-1.641 1.645.001 0 .934.941 2.071 2.082l2.07 2.074.713-.712 2.866-2.86z" fill="#23ce42"></path></svg><svg width="14" height="14" viewBox="0 0 14 14" id="list_cw" y="509"><path d="M6.737 13.995a6.968 6.968 0 0 1-3.923-1.387 6.994 6.994 0 0 1-1.423-9.794 6.993 6.993 0 0 1 11.037-.231 6.994 6.994 0 0 1 .18 8.602c-.34.455-.748.88-1.191 1.243a6.975 6.975 0 0 1-4.68 1.567zm3.434-6.527l2.153-2.148-.83-.83-.83-.83-2.036 2.036-2.036 2.036-1.246-1.246c-.685-.685-1.25-1.246-1.254-1.246-.013 0-1.644 1.635-1.641 1.645.001 0 .934.941 2.071 2.082l2.07 2.074.713-.712 2.866-2.86z" fill="#fff"></path></svg><svg viewBox="0 0 9.9999999 21" height="21" width="10" id="phone" y="523"><g transform="matrix(.03345 0 0 .03714 -4.454 0)" fill="#fff"><path d="M185.364 0c-28.783 0-52.183 23.409-52.183 52.192v460.97c0 28.783 23.399 52.191 52.183 52.191H379.97c28.783 0 52.201-23.408 52.201-52.191V52.192C432.172 23.409 408.754 0 379.971 0H185.364zm97.308 544.105c-16.716 0-30.313-13.598-30.313-30.312s13.598-30.312 30.313-30.312c16.714 0 30.312 13.598 30.312 30.312-.007 16.715-13.597 30.312-30.312 30.312zM404.164 45.154V459.01a3.588 3.588 0 0 1-3.586 3.586H164.767a3.588 3.588 0 0 1-3.586-3.586V45.154a3.587 3.587 0 0 1 3.586-3.586h235.812a3.588 3.588 0 0 1 3.585 3.586z"></path><path d="M282.672 498.627c-8.349 0-15.166 6.799-15.166 15.166 0 8.357 6.817 15.166 15.166 15.166 8.367 0 15.166-6.809 15.166-15.166-.01-8.357-6.799-15.166-15.166-15.166z"></path></g></svg><svg viewBox="0 0 9.9999999 21" height="21" width="10" id="phone_black" y="544"><g transform="matrix(.03345 0 0 .03714 -4.454 0)" fill="#333"><path d="M185.364 0c-28.783 0-52.183 23.409-52.183 52.192v460.97c0 28.783 23.399 52.191 52.183 52.191H379.97c28.783 0 52.201-23.408 52.201-52.191V52.192C432.172 23.409 408.754 0 379.971 0H185.364zm97.308 544.105c-16.716 0-30.313-13.598-30.313-30.312s13.598-30.312 30.313-30.312c16.714 0 30.312 13.598 30.312 30.312-.007 16.715-13.597 30.312-30.312 30.312zM404.164 45.154V459.01a3.588 3.588 0 0 1-3.586 3.586H164.767a3.588 3.588 0 0 1-3.586-3.586V45.154a3.587 3.587 0 0 1 3.586-3.586h235.812a3.588 3.588 0 0 1 3.585 3.586z"></path><path d="M282.672 498.627c-8.349 0-15.166 6.799-15.166 15.166 0 8.357 6.817 15.166 15.166 15.166 8.367 0 15.166-6.809 15.166-15.166-.01-8.357-6.799-15.166-15.166-15.166z"></path></g></svg><svg width="10" height="21" viewBox="0 0 9.9999999 21" id="phone_blue" y="565"><g transform="matrix(.03345 0 0 .03714 -4.454 0)" fill="#afc2cf"><path d="M185.364 0c-28.783 0-52.183 23.409-52.183 52.192v460.97c0 28.783 23.399 52.191 52.183 52.191H379.97c28.783 0 52.201-23.408 52.201-52.191V52.192C432.172 23.409 408.754 0 379.971 0H185.364zm97.308 544.105c-16.716 0-30.313-13.598-30.313-30.312s13.598-30.312 30.313-30.312c16.714 0 30.312 13.598 30.312 30.312-.007 16.715-13.597 30.312-30.312 30.312zM404.164 45.154V459.01a3.588 3.588 0 0 1-3.586 3.586H164.767a3.588 3.588 0 0 1-3.586-3.586V45.154a3.587 3.587 0 0 1 3.586-3.586h235.812a3.588 3.588 0 0 1 3.585 3.586z"></path><path d="M282.672 498.627c-8.349 0-15.166 6.799-15.166 15.166 0 8.357 6.817 15.166 15.166 15.166 8.367 0 15.166-6.809 15.166-15.166-.01-8.357-6.799-15.166-15.166-15.166z"></path></g></svg><svg viewBox="0 0 8 8" height="8" width="8" id="plus" y="586"><path d="M2.998 6.499V4.998H0v-2h2.998V0h2.004v2.998h2.996v1L8 4.997H5.002v3.002H2.998V6.498z" fill="#9eafb4"></path></svg><svg viewBox="0 0 24 21" height="21" width="24" id="saic_1" y="594"><path d="M2.196 20.986A2.46 2.46 0 0 1 .93 20.43a3.403 3.403 0 0 1-.43-.467 2.75 2.75 0 0 1-.488-1.337C0 18.518-.002 16.727 0 12.5c.004-5.642.005-5.98.026-6.098.095-.536.291-.967.613-1.349a2.48 2.48 0 0 1 1.345-.81l.155-.038h5.855V4.17c.001-.11.029-.442.05-.599A4.225 4.225 0 0 1 9.778.711c1.72-1.209 4.025-.842 5.333.848.52.673.825 1.494.882 2.376.007.11.013.215.013.235v.036h5.856l.155.037c.66.155 1.194.531 1.556 1.097.2.312.318.62.395 1.03l.028.145.004 5.98c.003 4.22 0 6.023-.01 6.13-.042.47-.202.92-.464 1.305-.088.13-.328.394-.452.5a2.43 2.43 0 0 1-1.285.557c-.151.018-19.447.017-19.592 0zm19.52-2.129a.517.517 0 0 0 .276-.383c.01-.056.014-1.034.014-3.336 0-3.096-.001-3.257-.022-3.248a26.29 26.29 0 0 1-8.648 1.934l-.338.017v.31c0 .333-.013.443-.07.59-.116.3-.372.537-.673.623a1.122 1.122 0 0 1-.51 0 1.03 1.03 0 0 1-.668-.615c-.063-.16-.075-.257-.075-.599v-.31l-.337-.016a26.223 26.223 0 0 1-8.655-1.937c-.021-.01-.023 6.465-.002 6.587a.514.514 0 0 0 .362.416c.028.01 4.107.01 9.655.01h9.608l.082-.04zm-10.711-7.454c.005-.305.008-.344.034-.428.09-.292.268-.515.51-.643.151-.08.275-.11.451-.11.382 0 .709.207.883.56.098.198.106.244.112.622l.005.336.148-.01a24.38 24.38 0 0 0 8.157-1.82c.314-.132.665-.285.685-.302.013-.01.016-.297.013-1.461L22 6.699l-.029-.072a.521.521 0 0 0-.31-.312c-.057-.018-1.136-.02-9.66-.02-8.526 0-9.605 0-9.662.02a.52.52 0 0 0-.31.312l-.028.072-.004 1.448c-.003 1.164 0 1.45.013 1.461.042.035.833.366 1.317.55a24.344 24.344 0 0 0 7.176 1.55c.132.01.269.017.303.019.035 0 .093 0 .129.01H11l.005-.334zm2.988-7.353a2.107 2.107 0 0 0-1.038-1.701c-.95-.543-2.148-.187-2.689.8-.159.29-.262.667-.262.959V4.2H14l-.007-.15z" fill="#fff"></path></svg><svg viewBox="0 0 23 20" height="20" width="23" id="saic_2" y="615"><path d="M7 19.5l.003-.499H23v1.005H6.997l.003-.5zm-5.995-2v-1.495h2.99v2.99h-2.99V17.5zm5.992 0v-.502H23v1.004H6.997V17.5zm.008-1.503a7.99 7.99 0 0 1-.008-.503V15H23v1.005h-7.994c-4.396 0-7.997 0-8.001-.01zM6.997 12.5v-.502H23v1.004H6.997V12.5zm-5.992-2.004v-1.5h2.99v3.002h-2.99v-1.502zm6 .5c-.005 0-.008-.23-.008-.502V10H23v1.005h-7.994c-4.396 0-7.997 0-8.001-.01zM6.997 8.5v-.497H23v.993H6.997V8.5zM0 3.002V0h23v6.005H0V3.002zm21.003-.01v-.998H1.997v1.998h19.006v-1z" opacity=".95" fill="#fff"></path></svg><svg viewBox="0 0 20 20" height="20" width="20" id="saic_3" y="635"><path d="M1.555 19.988c-.4-.055-.76-.236-1.044-.528a1.749 1.749 0 0 1-.505-1.083c-.01-.109-.008-.227.02-.87l.033-.744.095-.191c.607-1.212 1.422-2.202 2.39-2.906.427-.31.925-.579 1.332-.719l.126-.043.737-.01c.749-.01.793-.01.969-.051a1.73 1.73 0 0 0 1.269-1.253c.042-.165.052-.29.052-.643v-.332l-.09-.12a6.22 6.22 0 0 1-.915-1.74l-.067-.198-.098-.103a2.082 2.082 0 0 1-.464-2.149c.038-.104.133-.302.176-.367l.025-.038.005-1.09c.004-1.157.004-1.168.058-1.521.093-.606.3-1.15.613-1.616C6.759.948 7.558.409 8.487.179a6.458 6.458 0 0 1 2.211-.143c1.057.107 1.863.431 2.51 1.01.688.613 1.103 1.558 1.18 2.69.006.085.01.6.011 1.156v1.003l.069.12c.329.567.345 1.308.043 1.918-.111.224-.225.384-.391.546l-.086.084-.061.179a6.54 6.54 0 0 1-.934 1.802l-.072.096v.319a4 4 0 0 0 .015.43c.05.369.204.693.457.96.274.288.611.463 1.007.525.041.01.415.018.832.026l.758.014.107.038c.401.141.893.409 1.31.711.968.704 1.782 1.694 2.389 2.906.085.17.1.206.127.328l.031.138v.633c0 .764-.006.837-.095 1.103a1.744 1.744 0 0 1-.449.716 1.755 1.755 0 0 1-.79.452c-.25.066.453.061-8.678.06-6.79 0-8.352 0-8.433-.015zM18 17.681v-.322l-.055-.101a7.142 7.142 0 0 0-.527-.829c-.486-.65-1.087-1.18-1.68-1.478l-.081-.04-.627-.012c-.426-.01-.673-.017-.773-.028a3.859 3.859 0 0 1-.866-.205 3.758 3.758 0 0 1-2.114-2.005 3.955 3.955 0 0 1-.273-.963c-.032-.244-.037-.387-.037-1.058v-.685l.243-.31c.364-.467.52-.713.688-1.086.103-.23.163-.392.287-.783l.104-.326.215-.2c.19-.176.216-.204.215-.232 0-.023-.041-.09-.16-.258l-.16-.227-.003-1.39c-.003-1.365-.004-1.39-.026-1.528-.087-.53-.27-.898-.564-1.134-.26-.21-.573-.336-1.01-.41a4.635 4.635 0 0 0-1.688.02 2.029 2.029 0 0 0-.913.414c-.3.244-.479.602-.569 1.144-.022.135-.023.154-.024 1.498L7.6 6.51l-.166.245c-.14.207-.165.25-.16.273.005.017.084.098.22.222l.213.194.03.098c.097.319.215.683.257.788.066.17.197.432.298.6.119.197.218.336.497.693l.241.31-.004.774c-.004.64-.008.799-.022.907a3.728 3.728 0 0 1-3.076 3.227c-.27.045-.35.049-.968.055l-.6.01-.111.056c-.648.325-1.298.924-1.813 1.668a7.584 7.584 0 0 0-.312.502l-.086.148-.016.352-.015.364c0 .01 1.606.013 7.996.013H18v-.322z" fill="#fff"></path></svg><svg viewBox="0 0 28 13" height="13" width="28" id="saic_4" y="655"><path d="M0 12.07v-.93h1.002v-6.5h8.002V0h9.992v6.5H26.998v4.64H28V13h-3.994v-1.86h.988V8.36h-5.998V11.14h1.002V13h-3.994v-1.86h.983l.01-3.48c.005-1.913.01-4 .01-4.639v-1.16h-6.018l.01 2.084c.005 1.146.01 3.233.01 4.639v2.555h.987V13H8.002v-1.86h1.002l-.003-2.317-.004-2.316-2.995-.003-2.996-.003V11.14h.988V13H0v-.93zm12.998-6.035V3.71h2.004v4.652h-2.004V6.035z" fill="#fff"></path></svg><svg viewBox="0 0 22 19" height="19" width="22" id="saic_5" y="668"><path d="M.83 18.045l.003-.95H2.83V7.598h-1c-.967 0-1 0-1.08-.025-.376-.105-.62-.335-.726-.683A.692.692 0 0 1 0 6.645c0-.141.005-.171.032-.259a.971.971 0 0 1 .343-.481c.042-.03 2.04-1.179 4.442-2.553C10.631.027 10.494.106 10.58.071c.265-.104.574-.092.823.025.057.028 10.025 5.686 10.146 5.76a.996.996 0 0 1 .381.445c.22.543-.099 1.124-.7 1.274-.074.021-.164.021-1.236.023H18.84V17.096h2.004V19H.827l.003-.95zm6.006-3.803l-.003-2.848H4.835v5.702h2.004l-.003-2.848zm6.003-1.901V7.59H8.836l-.003 4.75-.002 4.749h4.008v-4.75zm3.996 1.898v-2.85h-1.992v5.7h1.992v-2.85zM6.84 8.54V7.59H4.835V9.484h2.004v-.946zm9.996 0V7.59h-1.992V9.484h1.992v-.946zm.532-2.856c-.003 0-1.445-.822-3.204-1.821l-3.2-1.817L7.82 3.843l-3.183 1.82-.04.024H17.366z" fill="#fff"></path></svg><svg viewBox="0 0 21 21" height="21" width="21" id="saic_6" y="687"><path d="M19.81 20.986c-.164-.031-.319-.1-.443-.197a683.23 683.23 0 0 1-4.206-4.124l-.255-.252-.194.136a9.382 9.382 0 0 1-4.87 1.7c-.245.015-.834.015-1.079 0-2.145-.128-4.118-.934-5.707-2.332A9.037 9.037 0 0 1 1.34 4.406 9.265 9.265 0 0 1 5.113.971C6.225.422 7.366.114 8.667.014a15.279 15.279 0 0 1 1.283 0 9.45 9.45 0 0 1 2.4.484 9.3 9.3 0 0 1 4.618 3.476c.29.414.624 1.006.832 1.476a9.06 9.06 0 0 1-1.313 9.467l-.102.124.323.32 2.158 2.123c1.01.992 1.867 1.84 1.905 1.884.082.096.17.264.203.39.032.12.035.363.005.475-.082.307-.28.544-.565.676a1.084 1.084 0 0 1-.603.077zM9.83 16.247a7.335 7.335 0 0 0 4.206-1.71c.137-.114.582-.534.59-.557.002-.01-1.915-.01-5.339-.01H3.944l.047.055a7.363 7.363 0 0 0 5.838 2.222zm-6.79-6.766v-2.5h3.052V11.98h1.012V8.986l-.001-2.994H10.149v5.993h1.017V4.99h3.04v6.995h1.746l.023-.053a7.217 7.217 0 0 0 .475-1.617c.076-.455.094-.682.094-1.189 0-.452-.013-.638-.067-1.011A7.023 7.023 0 0 0 15 4.72a7.326 7.326 0 0 0-2.713-2.095 7.398 7.398 0 0 0-2.305-.6 13.1 13.1 0 0 0-1.3-.01A7.427 7.427 0 0 0 5.94 2.8a7.321 7.321 0 0 0-2.314 1.872A7.071 7.071 0 0 0 2.1 8.138c-.053.358-.061.497-.062.995 0 .485.004.561.051.929.075.584.236 1.194.466 1.755l.066.163h.418V9.481zm2.035.503V7.988H4.057v3.991h1.017V9.984zM9.13 9.48V6.981H8.12l-.003 2.483c-.002 1.365 0 2.488.002 2.496.005.01.117.014.51.014h.502v-2.5zm4.058-.497V5.987h-1.006v5.992h1.006V8.983z" fill="#fff"></path></svg><svg height="18" width="18" viewBox="0 0 18 18" id="search" y="708"><path d="M17.56 15.431l-3.91-3.91c-.022-.02-.046-.035-.068-.055a7.4 7.4 0 1 0-2.115 2.115c.02.022.034.046.055.067l3.91 3.91a1.504 1.504 0 0 0 2.127-2.127zM7.4 12.234a4.835 4.835 0 1 1 0-9.67 4.835 4.835 0 0 1 0 9.67z" clip-rule="evenodd" fill-rule="evenodd" fill="#fff"></path></svg><svg viewBox="0 0 15 15" height="15" width="15" id="star" y="726"><path d="M3.301 14.993a.937.937 0 0 1-.738-.63.802.802 0 0 1-.043-.305v-.126l.314-1.912a87.26 87.26 0 0 0 .319-1.998 1.002 1.002 0 0 0-.215-.663c-.022-.027-.64-.663-1.375-1.412C.83 7.197.21 6.56.187 6.53a1.176 1.176 0 0 1-.138-.26A.825.825 0 0 1 0 5.954c0-.182.028-.3.108-.458a.883.883 0 0 1 .548-.458c.046-.013.7-.114 1.899-.293 1.014-.15 1.863-.28 1.906-.292a.903.903 0 0 0 .515-.375c.04-.06.228-.454.878-1.837.455-.969.844-1.79.864-1.825a.87.87 0 0 1 .618-.411c.352-.054.709.106.95.426.038.051.162.31.872 1.82.513 1.092.842 1.784.866 1.82.021.032.067.088.101.123.108.113.212.18.353.226.075.025.256.054 1.939.313 1.162.178 1.882.292 1.926.305.324.09.564.361.642.722.02.093.02.294 0 .387a.981.981 0 0 1-.217.437c-.022.025-.632.65-1.355 1.387-.723.738-1.33 1.358-1.347 1.379a.953.953 0 0 0-.22.663c.003.062.095.644.314 1.98.17 1.04.312 1.926.317 1.97.01.09 0 .219-.024.317a.94.94 0 0 1-.577.667.888.888 0 0 1-.631-.01c-.04-.017-3.232-1.777-3.339-1.841a.883.883 0 0 0-.224-.08.981.981 0 0 0-.498.038c-.029.01-.787.427-1.686.925-.9.497-1.664.918-1.699.934a.898.898 0 0 1-.498.077zm1.82-2.007c.837-.465 1.553-.861 1.59-.88a1.78 1.78 0 0 1 .512-.158c.128-.02.425-.02.553 0 .173.027.341.078.486.147.043.021.777.424 1.63.896.854.472 1.553.857 1.554.856l-.29-1.782c-.16-.978-.294-1.82-.3-1.87a3.25 3.25 0 0 1 .012-.54 2.08 2.08 0 0 1 .445-1.012c.035-.04.62-.643 1.3-1.337.682-.695 1.237-1.264 1.235-1.266-.002 0-.776-.123-1.72-.268a125.1 125.1 0 0 1-1.796-.284 1.912 1.912 0 0 1-1.215-.95c-.023-.043-.394-.827-.825-1.744-.43-.917-.785-1.667-.789-1.667-.003 0-.36.754-.792 1.675-.433.921-.805 1.706-.826 1.746a1.913 1.913 0 0 1-1.246.963c-.05.01-.854.133-1.788.273l-1.7.256c-.002 0 .552.57 1.23 1.262.725.739 1.262 1.293 1.301 1.341.101.127.165.227.244.385.113.223.181.45.213.703.015.118.017.366.004.475-.008.064-.577 3.57-.59 3.63l-.004.022.024-.013c.014-.01.71-.394 1.548-.859z" fill="#fff"></path></svg><svg viewBox="0 0 19 19" height="19" width="19" id="stat" y="741"><path d="M8.155 18.998A8.518 8.518 0 0 1 .05 11.464 6.929 6.929 0 0 1 0 10.499c0-.43.008-.585.05-.965A8.465 8.465 0 0 1 2.49 4.49a8.48 8.48 0 0 1 5.05-2.438c.42-.047.468-.048 1.483-.053H10v7h7.006l-.005.983c-.004 1.02-.006 1.066-.053 1.488a8.506 8.506 0 0 1-3.359 5.843c-.707.53-1.52.96-2.353 1.243a8.537 8.537 0 0 1-2.147.433c-.135.011-.822.021-.935.014zm.9-2.019a6.522 6.522 0 0 0 1.506-.312 6.529 6.529 0 0 0 4.423-5.645c0-.017-.173-.018-3.492-.018H8V7.509c0-2.79-.003-3.495-.013-3.495a6.497 6.497 0 0 0-3.533 1.397 6.497 6.497 0 0 0-2.418 5.808 6.52 6.52 0 0 0 4.713 5.544c.466.13.908.2 1.476.235.131.01.67 0 .83-.02zM12.002 3.5V.006h.528c.683 0 .928.015 1.333.08 2.555.415 4.6 2.428 5.047 4.97.083.472.094.65.089 1.507l-.003.433h-6.994V3.5zm4.84 1.483l-.031-.103a4.622 4.622 0 0 0-.233-.57 4.343 4.343 0 0 0-.52-.804 6.077 6.077 0 0 0-.578-.573 4.213 4.213 0 0 0-1.467-.768c-.006 0-.01.561-.01 1.415v1.415h1.422c1.134 0 1.421 0 1.417-.013z" fill="#fff" opacity=".7"></path></svg><svg viewBox="0 0 11 20" height="20" width="11" id="tie" y="760"><path d="M4.772 19.993c-.354-.081-1.384-.601-2.425-1.224-.916-.548-1.64-1.051-2.015-1.404-.16-.15-.25-.256-.299-.354-.038-.077-.04-.106-.02-.231.108-.657.833-3.406 2.145-8.135a1116.342 1116.342 0 0 1 1.205-4.311c0-.01-.62-.804-1.376-1.777C1.23 1.583.606.777.6.765A.631.631 0 0 1 .558.387c.05-.186.218-.307.5-.36.15-.029-.036-.028 3.816-.028 3.433 0 3.62 0 3.69.011.282.04.44.127.491.274.04.114.007.271-.088.428-.017.029-.62.854-1.341 1.834-.72.98-1.31 1.784-1.31 1.788 0 .01.036.136.08.294 1.411 5.031 2.564 9.258 3.02 11.078.187.744.26 1.075.26 1.181.001.053 0 .057-.02.1-.117.236-.6.638-1.43 1.19-.99.661-2.292 1.4-2.993 1.7-.254.108-.37.138-.46.117zm.247-1.11c.307-.141.778-.395 1.306-.703.984-.575 1.863-1.157 2.282-1.511l.014-.012-.041-.174c-.35-1.471-1.637-6.208-3.18-11.702-.098-.351-.178-.642-.178-.647 0-.01.517-.711 1.148-1.57L7.52 1H2.042l.311.4c1.494 1.918 2.097 2.694 2.104 2.705.007.01-.005.058-.119.46L3.8 6.48c-1.427 5.09-2.523 9.152-2.742 10.163l-.007.033.03.028c.283.255.957.714 1.72 1.173.753.451 1.511.86 1.931 1.041l.104.045.04-.017.143-.064zm4.754-6.086c-.124-.377-2.699-8.28-2.697-8.282.001 0 1.451 2.29 3.528 5.577.16.252.3.479.312.504a.882.882 0 0 1 .068.212c.017.084.018.26.003.346a.906.906 0 0 1-.105.3c-.026.042-1.061 1.466-1.066 1.466a2.31 2.31 0 0 1-.043-.123z" fill="#fff"></path></svg><svg id="vk" viewBox="0 0 22 13" width="22" height="13" y="780"><style>.st0{fill:#b9c5f0}</style><path class="st0" d="M21.9 11.6c0-.1-.1-.1-.1-.1-.4-.7-1.1-1.5-2.2-2.5l-.9-.9c-.2-.3-.3-.6-.2-.9.1-.2.4-.7 1-1.5.3-.4.6-.7.7-1 1.3-1.8 1.9-2.9 1.7-3.4V1c0-.1-.2-.1-.4-.2s-.4-.1-.7 0h-3.7c-.1.1-.1.2-.2.2 0 .1-.1.1-.1.2-.4 1-.8 1.8-1.2 2.6-.3.5-.5.9-.8 1.2-.2.3-.4.6-.6.8l-.4.4c-.1.1-.2.1-.3.1h-.2L13 6c-.1-.1-.1-.3-.1-.4v-.5-.5-.5-.9-.8-.6-.5c0-.1-.1-.2-.1-.4-.1-.1-.1-.2-.2-.3-.1-.1-.2-.1-.4-.2-.4-.1-.9-.1-1.5-.1C9.3.3 8.4.4 8 .6c-.3 0-.5.1-.6.2-.1.2-.1.3 0 .3.5.1.8.2 1 .5l.1.1c-.1.1 0 .3.1.6s.1.5.1.8v1.4c0 .4-.1.7-.1.9s-.1.5-.2.6c-.1.1-.1.2-.1.3l-.1.1h-.3c-.1 0-.2-.1-.4-.2-.1-.1-.3-.2-.5-.4-.1-.2-.3-.5-.5-.8-.2-.3-.4-.7-.7-1.2l-.2-.3c-.1-.2-.2-.6-.4-1s-.4-.8-.5-1.2L4.4 1h-.1S4.2.9 4.1.9c0-.1-.1-.1-.2-.1H.8C.4.8.2.9.1 1V1.3c0 .1 0 .2.1.3.5 1.1 1 2.1 1.5 3.1s1 1.8 1.4 2.4c.4.6.8 1.2 1.2 1.7.4.5.7.9.8 1 .1.2.2.3.3.3l.3.3c.2.2.5.4.8.7.4.3.7.5 1.2.8.4.2.9.5 1.5.6.6.2 1.1.2 1.7.2h1.3c.3 0 .5-.1.6-.3v-.1s.1-.1.1-.2v-.3c0-.3 0-.6.1-.9.1-.3.1-.5.2-.6.1-.1.2-.2.2-.3.1-.1.2-.1.2-.2h.1c.2-.1.4 0 .6.2.2.2.5.4.7.7.2.3.5.6.8.9.3.3.6.6.8.7l.2.1.6.3c.2.1.5.1.6.1h2.9c.3 0 .5 0 .7-.1.2-.1.3-.2.3-.3V12v-.4z"></path></svg></svg>