<svg id="Layer_1" data-name="Layer 1" xmlns="http://www.w3.org/2000/svg" xmlns:xlink="http://www.w3.org/1999/xlink" width="577.57" height="352.82" viewBox="0 0 577.57 352.82"><defs><clipPath id="clip-path"><polyline points="-143.22 354.24 -143.22 69.08 864.91 69.08 864.91 354.24" fill="none"/></clipPath><radialGradient id="radial-gradient" cx="288.78" cy="288.78" r="73.02" gradientUnits="userSpaceOnUse"><stop offset="0" stop-color="#fff" stop-opacity="0"/><stop offset="0.84" stop-color="#fbfbfb" stop-opacity="0"/><stop offset="1" stop-color="#2f3c6b" stop-opacity="0.2"/></radialGradient><radialGradient id="Безымянный_градиент_25" cx="288.78" cy="288.78" r="116.18" gradientUnits="userSpaceOnUse"><stop offset="0" stop-color="#fff" stop-opacity="0"/><stop offset="0.84" stop-color="#fbfbfb" stop-opacity="0"/><stop offset="1" stop-color="#535e83" stop-opacity="0.26"/></radialGradient><radialGradient id="Безымянный_градиент_24" cx="288.78" cy="288.78" r="159.33" gradientUnits="userSpaceOnUse"><stop offset="0" stop-color="#fff" stop-opacity="0"/><stop offset="0.84" stop-color="#fbfbfb" stop-opacity="0"/><stop offset="1" stop-color="#78809c" stop-opacity="0.32"/></radialGradient><radialGradient id="Безымянный_градиент_23" cx="288.78" cy="288.78" r="202.48" gradientUnits="userSpaceOnUse"><stop offset="0" stop-color="#fff" stop-opacity="0"/><stop offset="0.84" stop-color="#fbfbfb" stop-opacity="0"/><stop offset="1" stop-color="#9ca1b4" stop-opacity="0.38"/></radialGradient><radialGradient id="Безымянный_градиент_22" cx="288.78" cy="288.78" r="245.63" gradientUnits="userSpaceOnUse"><stop offset="0" stop-color="#fff" stop-opacity="0"/><stop offset="0.84" stop-color="#fbfbfb" stop-opacity="0"/><stop offset="1" stop-color="#c1c3cd" stop-opacity="0.44"/></radialGradient><radialGradient id="radial-gradient-2" cx="288.78" cy="288.78" r="288.78" gradientUnits="userSpaceOnUse"><stop offset="0" stop-color="#fff" stop-opacity="0"/><stop offset="0.84" stop-color="#fbfbfb" stop-opacity="0"/><stop offset="1" stop-color="#e5e5e5" stop-opacity="0.5"/></radialGradient></defs><title>bg-notebook</title><g clip-path="url(#clip-path)"><circle cx="288.78" cy="288.78" r="73.02" fill="url(#radial-gradient)"/><circle cx="288.78" cy="288.78" r="116.18" fill-opacity="0.86" fill="url(#Безымянный_градиент_25)"/><circle cx="288.78" cy="288.78" r="159.33" fill-opacity="0.72" fill="url(#Безымянный_градиент_24)"/><circle cx="288.78" cy="288.78" r="202.48" fill-opacity="0.58" fill="url(#Безымянный_градиент_23)"/><circle cx="288.78" cy="288.78" r="245.63" fill-opacity="0.44" fill="url(#Безымянный_градиент_22)"/><circle cx="288.78" cy="288.78" r="288.78" fill-opacity="0.3" fill="url(#radial-gradient-2)"/></g><circle cx="287.91" cy="33.68" r="27.31" fill="#fbfbfb" stroke="#e5e5e5" stroke-miterlimit="10"/><circle cx="160.48" cy="68.29" r="27.31" transform="translate(-12.65 89.39) rotate(-30)" fill="#fbfbfb" stroke="#e5e5e5" stroke-miterlimit="10"/><circle cx="67.42" cy="161.98" r="27.31" transform="translate(-106.57 139.38) rotate(-60)" fill="#fbfbfb" stroke="#e5e5e5" stroke-miterlimit="10"/><circle cx="509.27" cy="160.48" r="27.31" transform="translate(-12.01 276.14) rotate(-30)" fill="#fbfbfb" stroke="#e5e5e5" stroke-miterlimit="10"/><circle cx="415.58" cy="67.42" r="27.31" transform="translate(149.4 393.61) rotate(-60)" fill="#fbfbfb" stroke="#e5e5e5" stroke-miterlimit="10"/><g opacity="0.5"><path d="M287.86,37.84a4.22,4.22,0,1,0-4.22-4.22A4.21,4.21,0,0,0,287.86,37.84Z" fill="#688491"/><ellipse cx="410.43" cy="73.05" rx="2.78" ry="2.81" fill="#688491"/><path d="M421.08,75.86h-3.94a9.54,9.54,0,0,0-9.49-9.59h0v-4A13.5,13.5,0,0,1,421.08,75.86Z" fill="#688491"/><line x1="169.48" y1="77.29" x2="166.26" y2="74.08" fill="none" stroke="#688491" stroke-miterlimit="10" stroke-width="4"/><path d="M55.83,162.33l0-2.34,8.07-3.41,0,2.25-6,2.3,6.06,2,0,2.25Z" fill="#688491"/><path d="M64.6,167.37l4-12.82,2.25,0-4,12.82Z" fill="#688491"/><path d="M71.59,165.24l0-2.25,6-2.27-6.06-2.05,0-2.25,8.2,3.07,0,2.34Z" fill="#688491"/><path d="M278.39,43.2l1.86-.85a11.85,11.85,0,0,0,4,2.31l.2,2A1.48,1.48,0,0,0,285.93,48h4a1.48,1.48,0,0,0,1.46-1.36l.2-2a11.85,11.85,0,0,0,4-2.31l1.86.85a1.52,1.52,0,0,0,1.91-.6l2-3.52a1.46,1.46,0,0,0-.45-2L299.3,36a10.76,10.76,0,0,0,0-4.62L301,30.18a1.57,1.57,0,0,0,.45-2l-2-3.52a1.52,1.52,0,0,0-1.91-.6l-1.91.9a11.85,11.85,0,0,0-4-2.31l-.2-2a1.48,1.48,0,0,0-1.46-1.36h-4a1.48,1.48,0,0,0-1.46,1.36l-.2,2a11.85,11.85,0,0,0-4,2.31l-1.86-.85a1.52,1.52,0,0,0-1.91.6l-2,3.52a1.46,1.46,0,0,0,.45,2l1.66,1.16a10.76,10.76,0,0,0,0,4.62l-1.66,1.16a1.57,1.57,0,0,0-.45,2l2,3.52A1.65,1.65,0,0,0,278.39,43.2Zm9.5-16.64a7.14,7.14,0,1,1-7.14,7.14A7.17,7.17,0,0,1,287.89,26.56Z" fill="#688491"/><path d="M423.86,75.86a16.29,16.29,0,0,0-16.2-16.38v-4.1a20.37,20.37,0,0,1,20.26,20.48Z" fill="#688491"/><path d="M160.48,63.29a5,5,0,1,1-5,5,5,5,0,0,1,5-5m0-4a9,9,0,1,0,9,9,9,9,0,0,0-9-9Z" fill="#688491"/><line x1="499.84" y1="169.3" x2="518.71" y2="169.3" fill="none" stroke="#688491" stroke-miterlimit="10" stroke-width="2"/><rect x="512.62" y="151.65" width="4.26" height="17.04" fill="#688491"/><rect x="507.15" y="159.56" width="4.26" height="9.13" fill="#688491"/><rect x="501.67" y="157.74" width="4.26" height="10.95" fill="#688491"/></g></svg>