<svg id="Layer_1" data-name="Layer 1" xmlns="http://www.w3.org/2000/svg" width="300" height="169.62" viewBox="0 0 300 169.62"><title>notebook</title><path d="M273.54,162.46a7.15,7.15,0,0,1-7.16,7.16H33.62a7.16,7.16,0,0,1-7.16-7.16V7.15A7.16,7.16,0,0,1,33.62,0H266.37a7.15,7.15,0,0,1,7.16,7.15Z" fill="#35495c"/><path d="M300,164.05a5.57,5.57,0,0,1-5.56,5.56H5.56a5.57,5.57,0,0,1,0-11.14H294.44A5.57,5.57,0,0,1,300,164.05Z" fill="#969595"/><rect x="0.01" y="158.49" width="299.99" height="6.86" fill="#b3b1b2"/><path d="M193,158.49a3.42,3.42,0,0,1-3.42,3.43H110.43a3.42,3.42,0,0,1-3.42-3.43Z" fill="#80807f"/><rect x="36.73" y="9.61" width="226.53" height="148.88" fill="#f5f3f5"/><rect x="39.52" y="12.03" width="220.44" height="10.72" fill="#2c3e50"/><path d="M48.11,17a2.62,2.62,0,1,1-2.62-2.62A2.62,2.62,0,0,1,48.11,17Z" fill="#a41d32"/><path d="M58.6,17A2.62,2.62,0,1,1,56,14.41,2.62,2.62,0,0,1,58.6,17Z" fill="#eeae23"/><path d="M69.08,17a2.62,2.62,0,1,1-2.62-2.62A2.61,2.61,0,0,1,69.08,17Z" fill="#1ac0e2"/><path d="M251.39,17.4A2.41,2.41,0,0,1,249.26,20H83.42a2.41,2.41,0,0,1-2.13-2.62,2.41,2.41,0,0,1,2.13-2.62H249.26A2.41,2.41,0,0,1,251.39,17.4Z" fill="#f2f1f0"/><rect x="46.78" y="32.66" width="8.72" height="8.71" fill="#c8c8c8"/><rect x="46.82" y="49.29" width="8.72" height="8.72" fill="#c8c8c8"/><rect x="46.7" y="65.85" width="8.72" height="8.72" fill="#c8c8c8"/><rect x="46.73" y="82.83" width="8.72" height="8.72" fill="#c8c8c8"/><rect x="46.73" y="134.53" width="8.72" height="8.72" fill="#c8c8c8"/><rect x="46.7" y="117.37" width="8.72" height="8.72" fill="#c8c8c8"/><rect x="46.73" y="99.83" width="8.72" height="8.72" fill="#c8c8c8"/><path d="M75.4,29v2.9l-8.26,4,8.26,4v2.89L64,37.11V34.64Z" fill="#565557"/><path d="M76.39,34H87.9v3.83H76.39Z" fill="#565557"/><path d="M89.21,42.76V39.85l8.26-4-8.26-4V29l11.36,5.65v2.47Z" fill="#565557"/><rect x="62.42" y="50.8" width="52.52" height="5.47" fill="#ffc93e"/><rect x="62.42" y="67.66" width="26.54" height="5.47" fill="#5bac46"/><rect x="62.36" y="84.18" width="12.88" height="5.47" fill="#ee496c"/><rect x="62.25" y="101.15" width="34.01" height="5.47" fill="#ffc93e"/><rect x="62.2" y="119.15" width="71.65" height="5.47" fill="#5bac46"/><rect x="80.3" y="84.29" width="30.31" height="5.47" fill="#459fd8"/><rect x="93.46" y="67.55" width="44.32" height="5.47" fill="#8b5e25"/><rect x="103.83" y="101.15" width="42.27" height="5.47" fill="#8b5e25"/><rect x="140.28" y="118.98" width="52.52" height="5.47" fill="#ee496c"/><rect x="116.76" y="84.29" width="52.52" height="5.47" fill="#9f4a9b"/><path d="M75.09,131.75v2.9l-8.26,4,8.26,4v2.89l-11.36-5.65V137.4Z" fill="#565557"/><path d="M88.9,145.52v-2.91l8.26-4-8.26-4v-2.88l11.36,5.65v2.47Z" fill="#565557"/><path d="M80.11,145.52H77.16l6.93-13.6H87Z" fill="#565557"/><rect x="141.5" y="67.43" width="19.34" height="5.47" fill="#ee496c"/><rect x="152.07" y="101.09" width="30.3" height="5.47" fill="#459fd8"/><rect x="166.2" y="67.6" width="34.24" height="5.47" fill="#459fd8"/><rect x="207.1" y="67.43" width="19.2" height="5.47" fill="#ffc93e"/><rect x="174.63" y="84.18" width="12.88" height="5.47" fill="#ffc93e"/><rect x="187.45" y="100.92" width="21.42" height="5.47" fill="#ee496c"/><rect x="199.92" y="118.86" width="12.87" height="5.47" fill="#8b5e25"/><rect x="193.26" y="84" width="49.61" height="5.47" fill="#5bac46"/><rect x="214.1" y="100.92" width="35.94" height="5.47" fill="#9f4a9b"/></svg>