<svg xmlns="http://www.w3.org/2000/svg" width="65.17" height="65.56" viewBox="0 0 65.17 65.56"><title>radial_logo</title><g id="Слой_2" data-name="Слой 2"><g id="Layer_2" data-name="Layer 2"><g opacity="0.1"><path d="M7.1,12.47C9.5,7.76,19.24,2.07,27.47.59,34-.58,38.22,0,38.13,2.09S35.85,9.91,33.87,13.4c-2.64,4.66-6.51,8.46-10.17,10-2.56,1.06-2.92,1.08-5.1.37A29.85,29.85,0,0,1,9,17.23C6.47,14.42,6.31,14,7.1,12.47Z" fill="#333"/><path d="M44,2.37c5.23.83,13.64,8.34,17.59,15.71,3.13,5.83,3.87,10,1.87,10.6s-8.14.24-12.07-.56c-5.25-1.07-10.06-3.58-12.63-6.59-1.8-2.11-1.93-2.44-1.92-4.74A29.85,29.85,0,0,1,40.1,5.62C42,2.37,42.34,2.1,44,2.37Z" fill="#f2622e"/><path d="M65.08,34.39c.83,5.23-3.72,15.55-9.5,21.59C51,60.75,47.22,62.76,46.07,61s-2.75-7.67-3.2-11.66c-.61-5.33.29-10.67,2.37-14C46.68,33,47,32.74,49.15,32a29.85,29.85,0,0,1,11.62-.39C64.44,32.45,64.81,32.68,65.08,34.39Z" fill="#333"/><path d="M41.12,64.29c-4.72,2.4-15.94,1.27-23.47-2.37-6-2.88-9-5.85-7.75-7.48s6.44-5,10.1-6.65c4.88-2.22,10.24-3,14.09-2.09,2.69.65,3,.84,4.34,2.7a29.85,29.85,0,0,1,4,10.93C42.77,63.08,42.66,63.5,41.12,64.29Z" fill="#333"/><path d="M5.29,50.74C1.54,47-.85,36,.28,27.69,1.18,21.14,3.06,17.29,5,18s6.73,4.59,9.44,7.55c3.62,4,6,8.81,6.34,12.75.21,2.76.13,3.11-1.23,5a29.85,29.85,0,0,1-9.17,7.15C6.94,51.94,6.51,52,5.29,50.74Z" fill="#333"/></g></g></g></svg>